SplineFontDB: 3.2
FontName: Rocohn-Half
FullName: Rocohn Half
FamilyName: RocohnHalf
Weight: Half
Copyright: Copyright (c) 2019, Ronen.Cohen
UComments: "2019-9-27: Created with FontForge (http://fontforge.org)"
Version: 001.000
ItalicAngle: 0
UnderlinePosition: -100
UnderlineWidth: 50
Ascent: 800
Descent: 200
InvalidEm: 0
LayerCount: 2
Layer: 0 0 "Back" 1
Layer: 1 0 "Fore" 0
XUID: [1021 1023 -1521988005 18956]
StyleMap: 0x0000
FSType: 0
OS2Version: 0
OS2_WeightWidthSlopeOnly: 0
OS2_UseTypoMetrics: 1
CreationTime: 1569588779
ModificationTime: 1579869356
OS2TypoAscent: 0
OS2TypoAOffset: 1
OS2TypoDescent: 0
OS2TypoDOffset: 1
OS2TypoLinegap: 90
OS2WinAscent: 0
OS2WinAOffset: 1
OS2WinDescent: 0
OS2WinDOffset: 1
HheadAscent: 0
HheadAOffset: 1
HheadDescent: 0
HheadDOffset: 1
OS2Vendor: 'PfEd'
Lookup: 258 0 0 "'kern' Horizontal Kerning lookup 0" { "'kern' Horizontal Kerning lookup 0-1" [150,0,2] } ['kern' ('DFLT' <'dflt' > 'hebr' <'dflt' > 'latn' <'dflt' > ) ]
MarkAttachClasses: 1
DEI: 91125
KernClass2: 35 25 "'kern' Horizontal Kerning lookup 0-1"
 1 A
 1 B
 1 C
 3 D O
 1 E
 1 F
 1 G
 15 H I M N d i j l
 3 J U
 1 K
 1 L
 1 P
 1 Q
 1 R
 1 S
 1 T
 1 V
 1 W
 1 X
 1 Y
 1 Z
 5 a g u
 7 b e o p
 1 c
 1 f
 5 h m n
 1 k
 1 q
 1 r
 1 s
 1 t
 5 v w y
 1 x
 1 z
 1 A
 33 B D E F H I K L M N P R b h i k l
 7 C G O Q
 1 J
 1 S
 1 T
 1 U
 1 V
 1 W
 1 X
 1 Y
 1 Z
 11 a c e g o q
 1 d
 1 f
 1 j
 7 m n p r
 1 s
 1 t
 1 u
 5 v w y
 1 x
 1 z
 0 

StartChar: underscoredbl
Encoding: 223 8215 0
Width: 140
VWidth: 0
Flags: HW
LayerCount: 2
Fore
SplineSet
40 57 m 5
 100 57 l 1029
EndSplineSet
Validated: 3
EndChar

StartChar: uni05D0
Encoding: 224 1488 1
Width: 706
VWidth: 0
Flags: HW
LayerCount: 2
Fore
SplineSet
431.939453125 218.669921875 m 1
 124.219726562 600 l 1
 182.76953125 600 l 1
 428.409179688 295.559570312 l 1
 481.479492188 387.650390625 512.829101562 496.48046875 533.159179688 600 c 1
 582.819335938 600 l 1
 555.189453125 461.099609375 512.579101562 345.4296875 456.189453125 256.099609375 c 2
 431.939453125 218.669921875 l 1
603.1796875 600 m 1
 652.849609375 600 l 1
 617.2890625 420.83984375 562.819335938 296.059570312 500.76953125 205.83984375 c 1
 666.919921875 0 l 1
 608.389648438 0 l 1
 445.149414062 202.26953125 l 1
 473 245.26953125 l 1
 473.069335938 245.370117188 l 1
 531.059570312 337.209960938 574.76953125 455.870117188 602.829101562 598.059570312 c 2
 603.1796875 600 l 1
112.309570312 0 m 1
 67.619140625 0 l 1
 147.189453125 467.16015625 l 1
 40 600 l 1
 98.51953125 600 l 1
 199.579101562 474.76953125 l 1
 112.309570312 0 l 1
216.139648438 454.25 m 1
 582.689453125 0 l 1
 524.169921875 0 l 1
 238.859375 353.559570312 l 1
 177.33984375 0 l 1
 132.649414062 0 l 1
 216.139648438 454.25 l 1
EndSplineSet
EndChar

StartChar: uni05D1
Encoding: 225 1489 2
Width: 652
VWidth: 0
Flags: HW
LayerCount: 2
Fore
SplineSet
65.939453125 550.58984375 m 1
 65.869140625 550.580078125 l 1
 62.5595703125 594.23046875 l 1
 143.009765625 601.629882812 202.1796875 605 240.559570312 605 c 0
 396.809570312 605 525.559570312 477.169921875 525.559570312 320.9296875 c 2
 525.559570312 114 l 1
 612.809570312 114 l 1
 612.809570312 67 l 1
 478.559570312 67 l 1
 478.559570312 320.469726562 l 2
 478.559570312 383.639648438 453.6796875 443.25 408.559570312 488.240234375 c 0
 363.439453125 533.23046875 303.779296875 558 240.559570312 558 c 0
 220.509765625 558 163.349609375 557.280273438 65.939453125 550.58984375 c 1
40 0 m 1
 40 47 l 1
 612.799804688 47 l 1
 612.799804688 0 l 1
 40 0 l 1
458.559570312 67 m 1
 40 67 l 1
 40 114 l 1
 411.559570312 114 l 1
 411.559570312 320 l 2
 411.559570312 414.049804688 334.559570312 491 240.559570312 491 c 0
 210.549804688 491 150.419921875 490.610351562 70.689453125 487 c 1
 67.3798828125 530.639648438 l 1
 164.129882812 537.280273438 220.719726562 538 240.559570312 538 c 0
 360.809570312 538 458.559570312 440.41015625 458.559570312 320.469726562 c 2
 458.559570312 67 l 1
EndSplineSet
EndChar

StartChar: uni05D2
Encoding: 226 1490 3
Width: 493
VWidth: 0
Flags: HW
LayerCount: 2
Fore
SplineSet
301.030273438 553 m 1
 141.290039062 553 l 1
 141.290039062 600 l 1
 339.959960938 600 l 1
 453.740234375 0 l 1
 405.900390625 0 l 1
 301.030273438 553 l 1
344.110351562 218.51953125 m 1
 385.540039062 0 l 1
 337.709960938 0 l 1
 315.959960938 114.669921875 l 1
 239.530273438 13 110.16015625 0 48.3203125 0 c 2
 40 0 l 1
 40 47 l 1
 46.8603515625 47 l 2
 68.3603515625 47 137.05078125 50 207.990234375 84.0703125 c 0
 241.690429688 100.259765625 270.91015625 121.190429688 294.840820312 146.259765625 c 0
 311.711914062 163.971679688 333.78515625 196.344726562 344.110351562 218.51953125 c 1
45.5400390625 67 m 2
 40 67 l 1
 40 114 l 1
 42.75 114 l 2
 128.470703125 113.120117188 254.360351562 147.740234375 290.830078125 247.169921875 c 1
 245.540039062 486 l 1
 141.280273438 486 l 1
 141.280273438 533 l 1
 284.470703125 533 l 1
 337.209960938 254.889648438 l 1
 286.470703125 105.559570312 130.25 66.48046875 45.5400390625 67 c 2
EndSplineSet
EndChar

StartChar: uni05D3
Encoding: 227 1491 4
Width: 624
VWidth: 0
Flags: HW
LayerCount: 2
Fore
SplineSet
40 553 m 1
 40 600 l 1
 584.290039062 600 l 1
 584.290039062 553 l 1
 40 553 l 1
451.8203125 533 m 1
 584.30078125 533 l 1
 584.30078125 486 l 1
 498.8203125 486 l 1
 498.8203125 0 l 1
 451.8203125 0 l 1
 451.8203125 533 l 1
431.8203125 0 m 1
 384.8203125 0 l 1
 384.8203125 486 l 1
 40 486 l 1
 40 533 l 1
 431.8203125 533 l 1
 431.8203125 0 l 1
EndSplineSet
EndChar

StartChar: uni05D4
Encoding: 228 1492 5
Width: 626
VWidth: 0
Flags: HW
LayerCount: 2
Fore
SplineSet
115.220703125 306.25 m 1
 162.220703125 310.389648438 l 1
 162.220703125 0 l 1
 115.220703125 0 l 1
 115.220703125 306.25 l 1
95.220703125 304.490234375 m 1
 95.220703125 0 l 1
 48.220703125 0 l 1
 48.220703125 300.349609375 l 1
 95.220703125 304.490234375 l 1
519.240234375 0 m 1
 472.240234375 0 l 1
 472.240234375 320 l 2
 472.240234375 414.049804688 395.240234375 491 301.240234375 491 c 0
 271.220703125 491 127.880859375 490.610351562 48.150390625 487 c 1
 44.830078125 530.639648438 l 1
 125.240234375 536.16015625 269.650390625 538 301.240234375 538 c 0
 421.440429688 538 519.240234375 440.41015625 519.240234375 320.469726562 c 2
 519.240234375 0 l 1
301.240234375 605 m 0
 457.48046875 605 586.240234375 477.169921875 586.240234375 320.9296875 c 2
 586.240234375 0 l 1
 539.240234375 0 l 1
 539.240234375 320.469726562 l 2
 539.240234375 383.639648438 514.360351562 443.25 469.240234375 488.240234375 c 0
 424.120117188 533.23046875 364.4609375 558 301.240234375 558 c 0
 269.48046875 558 124.330078125 556.150390625 43.390625 550.580078125 c 1
 43.3203125 550.580078125 l 1
 40 594.23046875 l 1
 120.4609375 601.629882812 262.850585938 605 301.240234375 605 c 0
EndSplineSet
EndChar

StartChar: uni05D5
Encoding: 229 1493 6
Width: 194
VWidth: 0
Flags: HW
LayerCount: 2
Fore
SplineSet
40 0 m 1
 40 600 l 1
 87 600 l 1
 87 0 l 1
 40 0 l 1
107 0 m 1
 107 600 l 1
 154 600 l 1
 154 0 l 1
 107 0 l 1
EndSplineSet
EndChar

StartChar: uni05D6
Encoding: 230 1494 7
Width: 393
VWidth: 0
Flags: HW
LayerCount: 2
Fore
SplineSet
69.25 588.209960938 m 2
 64.330078125 589.849609375 l 1
 81.140625 631.48046875 l 1
 159.680664062 605.860351562 247 588.48046875 353.30078125 588.48046875 c 1
 353.30078125 541.48046875 l 1
 211.490234375 541.48046875 111.810546875 574.209960938 69.25 588.209960938 c 2
205.5703125 533.41015625 m 1
 245.838867188 526.82421875 311.637695312 521.479492188 352.44140625 521.479492188 c 0
 352.677734375 521.479492188 353.063476562 521.479492188 353.30078125 521.48046875 c 2
 353.30078125 474.48046875 l 1
 317.5703125 474.48046875 284.110351562 476.200195312 252.5703125 479.360351562 c 1
 252.5703125 0 l 1
 205.5703125 0 l 1
 205.5703125 533.41015625 l 1
185.5703125 0 m 1
 138.5703125 0 l 1
 138.5703125 498.599609375 l 1
 110.79296875 505.338867188 66.6337890625 519.2265625 40 529.599609375 c 1
 56.8203125 571.209960938 l 1
 57.470703125 571 l 1
 63 569.209960938 l 2
 86.970703125 561.330078125 128.680664062 547.639648438 185.5703125 536.9296875 c 1
 185.5703125 0 l 1
EndSplineSet
EndChar

StartChar: uni05D7
Encoding: 231 1495 8
Width: 653
VWidth: 0
Flags: HW
LayerCount: 2
Fore
SplineSet
328 538 m 0
 448.240234375 538 546 440.41015625 546 320.469726562 c 2
 546 0 l 1
 499 0 l 1
 499 320 l 2
 499 414.049804688 422 491 328 491 c 0
 304 491 238.350585938 490.740234375 154 488.790039062 c 1
 154 0 l 1
 107 0 l 1
 107 530.830078125 l 1
 215.270507812 536.080078125 298.080078125 538 328 538 c 0
328 605 m 0
 484.240234375 605 613 477.169921875 613 320.9296875 c 2
 613 0 l 1
 566 0 l 1
 566 320.469726562 l 2
 566 383.639648438 541.120117188 443.25 496 488.240234375 c 0
 450.879882812 533.23046875 391.220703125 558 328 558 c 0
 297.009765625 558 209.780273438 556 96.509765625 550.33984375 c 2
 87 549.870117188 l 1
 87 0 l 1
 40 0 l 1
 40 591.9296875 l 1
 176.75 600.940429688 285.810546875 605 328 605 c 0
EndSplineSet
EndChar

StartChar: uni05D8
Encoding: 232 1496 9
Width: 650
VWidth: 0
Flags: HW
LayerCount: 2
Fore
SplineSet
107 600 m 1
 154 600 l 1
 154 280 l 2
 154 186 231 109 325 109 c 0
 419 109 496 186 496 280 c 2
 496 377.91015625 l 2
 496 441 444.360351562 492.669921875 381.25 492.669921875 c 2
 380.419921875 492.669921875 l 2
 356.041015625 492.666992188 321.616210938 479.352539062 303.580078125 462.950195312 c 1
 277.860351562 497.5 l 1
 278.610351562 498.190429688 l 2
 303.479492188 521.036132812 351.0703125 539.587890625 384.83984375 539.599609375 c 2
 385.25 539.599609375 l 2
 472.240234375 539.599609375 543 468.860351562 543 381.860351562 c 2
 543 279.530273438 l 2
 543 159.58984375 445.209960938 62 325 62 c 0
 204.790039062 62 107 159.58984375 107 279.530273438 c 2
 107 600 l 1
389.259765625 606.540039062 m 1
 510.669921875 606.540039062 610 507.209960938 610 385.799804688 c 2
 610 279.0703125 l 2
 610 122.830078125 481.240234375 -5 325 -5 c 0
 168.759765625 -5 40 122.830078125 40 279.0703125 c 2
 40 600 l 1
 87 600 l 1
 87 279.530273438 l 2
 87 216.360351562 111.879882812 156.75 157 111.759765625 c 0
 202.120117188 66.76953125 261.780273438 42 325 42 c 0
 388.219726562 42 447.860351562 66.740234375 493 111.759765625 c 0
 538.139648438 156.780273438 563 216.360351562 563 279.530273438 c 2
 563 381.860351562 l 2
 562.737304688 479.704101562 483.114257812 559.340820312 385.26953125 559.620117188 c 2
 384.860351562 559.620117188 l 2
 347.112304688 559.609375 293.80078125 539.001953125 265.860351562 513.620117188 c 1
 240.129882812 548.1796875 l 1
 274.990234375 580.384765625 341.80078125 606.530273438 389.259765625 606.540039062 c 1
 389.259765625 606.540039062 l 1
EndSplineSet
EndChar

StartChar: uni05D9
Encoding: 233 1497 10
Width: 194
VWidth: 0
Flags: HW
LayerCount: 2
Fore
SplineSet
87 600 m 1
 87 293.75 l 1
 40 289.610351562 l 1
 40 600 l 1
 87 600 l 1
107 600 m 1
 154 600 l 1
 154 299.650390625 l 1
 107 295.509765625 l 1
 107 600 l 1
EndSplineSet
EndChar

StartChar: uni05DA
Encoding: 234 1498 11
Width: 561
VWidth: 0
Flags: HW
LayerCount: 2
Fore
SplineSet
454.669921875 -146.900390625 m 1
 407.669921875 -146.900390625 l 1
 407.669921875 320 l 2
 407.669921875 414.049804688 330.669921875 491 236.669921875 491 c 0
 206.650390625 491 127.879882812 490.610351562 48.150390625 487 c 1
 44.830078125 530.639648438 l 1
 129.669921875 536.459960938 207.400390625 538 236.669921875 538 c 0
 356.879882812 538 454.669921875 440.41015625 454.669921875 320.469726562 c 2
 454.669921875 -146.900390625 l 1
236.669921875 605 m 0
 392.91015625 605 521.669921875 477.169921875 521.700195312 320.9296875 c 2
 521.700195312 -146.900390625 l 1
 474.700195312 -146.900390625 l 1
 474.700195312 320.459960938 l 2
 474.700195312 383.629882812 449.8203125 443.240234375 404.700195312 488.23046875 c 0
 359.580078125 533.219726562 299.919921875 557.990234375 236.700195312 557.990234375 c 0
 207.1796875 557.990234375 128.799804688 556.440429688 43.419921875 550.580078125 c 1
 43.3203125 550.580078125 l 1
 40 594.23046875 l 1
 120.459960938 601.629882812 198.290039062 605 236.669921875 605 c 0
EndSplineSet
EndChar

StartChar: uni05DB
Encoding: 235 1499 12
Width: 561
VWidth: 0
Flags: HW
LayerCount: 2
Fore
SplineSet
236.669921875 114 m 0
 330.719726562 114 407.669921875 190.950195312 407.669921875 285 c 2
 407.669921875 320 l 2
 407.669921875 414.049804688 330.669921875 491 236.669921875 491 c 0
 206.650390625 491 127.879882812 490.610351562 48.150390625 487 c 1
 44.830078125 530.639648438 l 1
 129.669921875 536.459960938 207.400390625 538 236.669921875 538 c 0
 356.879882812 538 454.669921875 440.41015625 454.669921875 320.469726562 c 2
 454.669921875 284.530273438 l 2
 454.669921875 164.58984375 356.879882812 67 236.669921875 67 c 0
 207.400390625 67 129.669921875 68.5400390625 44.830078125 74.349609375 c 1
 48.150390625 118 l 1
 127.879882812 114.400390625 206.669921875 114 236.669921875 114 c 0
236.669921875 605 m 0
 392.91015625 605 521.669921875 477.169921875 521.669921875 320.9296875 c 2
 521.669921875 284.0703125 l 2
 521.669921875 127.830078125 392.91015625 0 236.669921875 0 c 0
 198.290039062 0 120.459960938 3.3701171875 40 10.759765625 c 1
 43.3203125 54.41015625 l 1
 43.3896484375 54.41015625 l 1
 128.76953125 48.5498046875 207.150390625 47 236.669921875 47 c 0
 299.889648438 47 359.530273438 71.740234375 404.669921875 116.759765625 c 0
 449.809570312 161.780273438 474.669921875 221.360351562 474.669921875 284.530273438 c 2
 474.669921875 320.469726562 l 2
 474.669921875 383.639648438 449.790039062 443.25 404.669921875 488.240234375 c 0
 359.549804688 533.23046875 299.889648438 558 236.669921875 558 c 0
 207.150390625 558 128.76953125 556.450195312 43.3896484375 550.580078125 c 1
 43.3203125 550.580078125 l 1
 40 594.23046875 l 1
 120.459960938 601.629882812 198.290039062 605 236.669921875 605 c 0
EndSplineSet
EndChar

StartChar: uni05DC
Encoding: 236 1500 13
Width: 584
VWidth: 0
Flags: HW
LayerCount: 2
Fore
SplineSet
297.469726562 0 m 1
 247.489257812 0 l 1
 423.419921875 486 l 1
 40 486 l 1
 40 746.900390625 l 1
 87 746.900390625 l 1
 87 533 l 1
 474.069335938 533 l 1
 474.069335938 487.75 l 1
 297.469726562 0 l 1
154 600 m 1
 544.719726562 600 l 1
 544.719726562 486 l 1
 368.729492188 0 l 1
 318.739257812 0 l 1
 493.469726562 482.599609375 l 1
 494.069335938 484.25 l 1
 494.069335938 553 l 1
 107 553 l 1
 107 746.900390625 l 1
 154 746.900390625 l 1
 154 600 l 1
EndSplineSet
EndChar

StartChar: uni05DD
Encoding: 237 1501 14
Width: 653
VWidth: 0
Flags: HW
LayerCount: 2
Fore
SplineSet
328 538 m 0
 448.240234375 538 546 440.41015625 546 320.469726562 c 2
 546 67 l 1
 107 67 l 1
 107 530.830078125 l 1
 215.270507812 536.080078125 298.080078125 538 328 538 c 0
499 114 m 1
 499 320 l 2
 499 414.049804688 422 491 328 491 c 0
 304 491 238.350585938 490.740234375 154 488.790039062 c 1
 154 114 l 1
 499 114 l 1
328 605 m 0
 484.240234375 605 613 477.169921875 613 320.9296875 c 2
 613 0 l 1
 40 0 l 1
 40 591.9296875 l 1
 176.75 600.940429688 285.810546875 605 328 605 c 0
566 47 m 1
 566 320.469726562 l 2
 566 383.639648438 541.120117188 443.25 496 488.240234375 c 0
 450.879882812 533.23046875 391.220703125 558 328 558 c 0
 297.009765625 558 209.780273438 556 96.5 550.33984375 c 2
 87 549.870117188 l 1
 87 47 l 1
 566 47 l 1
EndSplineSet
EndChar

StartChar: uni05DE
Encoding: 238 1502 15
Width: 650
VWidth: 0
Flags: HW
LayerCount: 2
Fore
SplineSet
496.279296875 329.870117188 m 2
 496.279296875 535.830078125 206.75 549 154 374.3203125 c 1
 154 0 l 1
 107 0 l 1
 107 368.959960938 l 1
 125.489257812 421.240234375 183.790039062 538.549804688 334.099609375 538.549804688 c 0
 431.790039062 538.549804688 538.83984375 476.1796875 543 339.240234375 c 1
 543 339.009765625 l 2
 543.149414062 336.240234375 543.25 325.830078125 543.25 322.1796875 c 2
 543.25 219.629882812 l 2
 543.25 131.889648438 474.409179688 64.33984375 383.129882812 62.490234375 c 0
 381.379882812 62.490234375 379.619140625 62.490234375 377.899414062 62.490234375 c 0
 361.049804688 62.6298828125 337.099609375 66.33984375 319.279296875 71.419921875 c 1
 323.279296875 116.419921875 l 1
 404.4296875 93.91015625 496.279296875 130.629882812 496.279296875 223.629882812 c 2
 496.279296875 329.870117188 l 2
40 0 m 1
 40 600 l 1
 87 600 l 1
 87 0 l 1
 40 0 l 1
154 529.879882812 m 1
 290.909179688 675.16015625 610.279296875 610.349609375 610.279296875 329.870117188 c 2
 610.279296875 215.740234375 l 2
 610.279296875 94.330078125 510.939453125 -5 389.540039062 -5 c 1
 389.540039062 -5 l 1
 389.51953125 -5 389.486328125 -5 389.465820312 -5 c 0
 367.904296875 -5 333.98828125 1.056640625 313.759765625 8.51953125 c 1
 317.51953125 51.23046875 l 1
 336.569335938 46.1904296875 360.209960938 42.6904296875 377.759765625 42.5498046875 c 2
 379.479492188 42.5498046875 l 2
 380.83984375 42.5498046875 382.19921875 42.5498046875 383.569335938 42.5498046875 c 0
 431.599609375 43.5302734375 476.409179688 61.490234375 509.729492188 93.1396484375 c 0
 544.279296875 125.919921875 563.279296875 170.870117188 563.279296875 219.690429688 c 2
 563.279296875 322.219726562 l 2
 563.279296875 325.280273438 563.19921875 336.33984375 563.009765625 340.009765625 c 0
 560.909179688 407.830078125 535.080078125 464.66015625 488.309570312 504.349609375 c 0
 447.099609375 539.330078125 392.319335938 558.58984375 334.099609375 558.58984375 c 0
 268.509765625 558.58984375 212.159179688 537.700195312 166.609375 496.58984375 c 0
 139.69921875 472.299804688 120.540039062 444.51953125 107 418.799804688 c 1
 107 600 l 1
 154 600 l 1
 154 529.879882812 l 1
EndSplineSet
EndChar

StartChar: uni05DF
Encoding: 239 1503 16
Width: 194
VWidth: 0
Flags: HW
LayerCount: 2
Fore
SplineSet
40 -152.700195312 m 1
 40 600 l 1
 87 600 l 1
 87 -152.700195312 l 1
 40 -152.700195312 l 1
107 -152.700195312 m 1
 107 600 l 1
 154 600 l 1
 154 -152.700195312 l 1
 107 -152.700195312 l 1
EndSplineSet
EndChar

StartChar: uni05E0
Encoding: 240 1504 17
Width: 376
VWidth: 0
Flags: HW
LayerCount: 2
Fore
SplineSet
47.8798828125 71.9501953125 m 2
 45.6396484375 72.7001953125 l 1
 49.4794921875 116.419921875 l 1
 130.639648438 93.91015625 222.479492188 130.629882812 222.479492188 223.629882812 c 2
 222.479492188 486 l 1
 116.040039062 486 l 1
 116.040039062 533 l 1
 269.439453125 533 l 1
 269.439453125 231.879882812 l 2
 269.439453125 224.4296875 268.790039062 207.049804688 267.849609375 201.879882812 c 2
 267.75 201.150390625 l 2
 259.649414062 123.73046875 196.94921875 66.849609375 115.26953125 62.73046875 c 0
 112.319335938 62.580078125 109.26953125 62.490234375 106.26953125 62.490234375 c 0
 89.7333984375 62.50390625 63.57421875 66.7421875 47.8798828125 71.9501953125 c 2
116.040039062 600 m 1
 336.479492188 600 l 1
 336.479492188 215.740234375 l 2
 336.479492188 94.330078125 237.149414062 -5 115.739257812 -5 c 1
 115.739257812 -5 l 1
 115.705078125 -5 115.649414062 -5 115.615234375 -5 c 0
 94.0810546875 -5 60.205078125 1.0439453125 40 8.490234375 c 1
 43.849609375 52.25 l 1
 60.6201171875 46.8681640625 88.5263671875 42.4951171875 106.139648438 42.490234375 c 2
 106.319335938 42.490234375 l 2
 109.629882812 42.5 113 42.580078125 116.319335938 42.75 c 0
 159.489257812 44.9296875 200.25 61.1201171875 231.08984375 88.349609375 c 0
 263.439453125 116.91015625 282.989257812 155.0703125 287.639648438 198.719726562 c 0
 289.01953125 206.870117188 289.479492188 227.080078125 289.479492188 231.870117188 c 2
 289.479492188 553 l 1
 116.040039062 553 l 1
 116.040039062 600 l 1
EndSplineSet
EndChar

StartChar: uni05E1
Encoding: 241 1505 18
Width: 650
VWidth: 0
Flags: HW
LayerCount: 2
Fore
SplineSet
325 534 m 0
 445.209960938 534 543 436.540039062 543 316.740234375 c 2
 543 283.259765625 l 2
 543 163.459960938 445.209960938 66 325 66 c 0
 204.790039062 66 107 163.459960938 107 283.259765625 c 2
 107 316.740234375 l 2
 107 436.540039062 204.790039062 534 325 534 c 0
496 280 m 2
 496 320 l 2
 496 414 419 491 325 491 c 0
 231 491 154 414 154 320 c 2
 154 280 l 2
 154 186 231 109 325 109 c 0
 419 109 496 186 496 280 c 2
325 605 m 0
 481.240234375 605 610 477.169921875 610 320.9296875 c 2
 610 279.0703125 l 2
 610 122.830078125 481.240234375 -5 325 -5 c 0
 168.759765625 -5 40 122.830078125 40 279.0703125 c 2
 40 320.9296875 l 2
 40 477.169921875 168.759765625 605 325 605 c 0
563 283.259765625 m 2
 563 316.740234375 l 2
 563 379.830078125 538.059570312 439.400390625 492.9296875 484.330078125 c 0
 447.799804688 529.259765625 388.16015625 554 325 554 c 0
 261.83984375 554 202.25 529.309570312 157.0703125 484.330078125 c 0
 111.889648438 439.349609375 87 379.830078125 87 316.740234375 c 2
 87 283.259765625 l 2
 87 220.169921875 111.940429688 160.599609375 157.0703125 115.669921875 c 0
 202.200195312 70.740234375 261.83984375 46 325 46 c 0
 388.16015625 46 447.75 70.6904296875 492.9296875 115.669921875 c 0
 538.110351562 160.650390625 563 220.169921875 563 283.259765625 c 2
EndSplineSet
EndChar

StartChar: uni05E2
Encoding: 242 1506 19
Width: 654
VWidth: 0
Flags: HW
LayerCount: 2
Fore
SplineSet
306.479492188 65.16015625 m 1
 112.400390625 596.459960938 l 1
 163.51953125 596.459960938 l 1
 326.709960938 145.330078125 l 1
 430.219726562 267.259765625 472.860351562 445.099609375 494.860351562 600 c 1
 544.479492188 600 l 1
 508.099609375 316.099609375 403.729492188 157.16015625 306.479492188 65.16015625 c 1
564.709960938 600 m 1
 614.299804688 600 l 1
 539.940429688 84.349609375 310.610351562 -24.150390625 157.709960938 -108 c 1
 138.940429688 -71.8095703125 l 1
 139.129882812 -71.7001953125 l 2
 143.790039062 -69.150390625 149.190429688 -66.330078125 155.450195312 -63.0703125 c 0
 250.610351562 -13.4697265625 503.389648438 118.290039062 564.549804688 598.740234375 c 2
 564.709960938 600 l 1
129.709960938 -54.0595703125 m 1
 110.83984375 -17.900390625 l 1
 147.581054688 2.1220703125 203.030273438 40.6494140625 234.610351562 68.099609375 c 1
 40 596.459960938 l 1
 91.1103515625 596.459960938 l 1
 290.5703125 50.580078125 l 1
 233.099609375 -0.0400390625 179.650390625 -27.900390625 146.200195312 -45.33984375 c 0
 139.9296875 -48.599609375 134.509765625 -51.4296875 129.709960938 -54.0595703125 c 1
EndSplineSet
EndChar

StartChar: uni05E3
Encoding: 243 1507 20
Width: 642
VWidth: 0
Flags: HW
LayerCount: 2
Fore
SplineSet
535.560546875 -152.700195312 m 1
 488.560546875 -152.700195312 l 1
 488.560546875 315 l 2
 488.560546875 409.049804688 411.610351562 486 317.560546875 486 c 2
 245.169921875 486 l 2
 194.899414062 485.9453125 154.055664062 445.100585938 154 394.830078125 c 0
 154 316.669921875 264.8203125 289.110351562 264.8203125 289.110351562 c 1
 253.520507812 256.219726562 l 1
 251.419921875 256.48046875 l 2
 204.299804688 262.309570312 107 303.830078125 107 394.830078125 c 0
 107 471 168.98046875 533 245.169921875 533 c 2
 317.560546875 533 l 2
 437.770507812 533 535.560546875 435.41015625 535.560546875 315.469726562 c 2
 535.560546875 -152.700195312 l 1
317.560546875 600 m 2
 473.799804688 600 602.560546875 472.169921875 602.560546875 315.9296875 c 2
 602.560546875 -152.700195312 l 1
 555.560546875 -152.700195312 l 1
 555.560546875 315.469726562 l 2
 555.560546875 378.639648438 530.680664062 438.25 485.560546875 483.240234375 c 0
 440.440429688 528.23046875 380.780273438 553 317.560546875 553 c 2
 245.169921875 553 l 2
 157.950195312 553 87 482 87 394.830078125 c 0
 87 291.799804688 193.280273438 244.41015625 246.879882812 236.91015625 c 1
 235.560546875 204 l 1
 137.41015625 216.150390625 40 277.330078125 40 394.830078125 c 0
 40 508 132.040039062 600 245.169921875 600 c 2
 317.560546875 600 l 2
EndSplineSet
EndChar

StartChar: uni05E4
Encoding: 244 1508 21
Width: 646
VWidth: 0
Flags: HW
LayerCount: 2
Fore
SplineSet
109.959960938 74.3603515625 m 1
 113.280273438 118 l 1
 193.010742188 114.400390625 291.280273438 114 321.280273438 114 c 0
 415.280273438 114 492.280273438 191 492.280273438 285 c 2
 492.280273438 320 l 2
 492.280273438 414.049804688 415.280273438 491 321.280273438 491 c 2
 245.169921875 491 l 2
 194.899414062 490.9453125 154.055664062 450.100585938 154 399.830078125 c 0
 154 321.669921875 264.8203125 294.110351562 264.8203125 294.110351562 c 1
 253.520507812 261.219726562 l 1
 251.419921875 261.48046875 l 2
 204.299804688 267.309570312 107 308.830078125 107 399.830078125 c 0
 107 476 168.98046875 538 245.169921875 538 c 2
 321.280273438 538 l 2
 441.490234375 538 539.280273438 440.41015625 539.280273438 320.469726562 c 2
 539.280273438 284.530273438 l 2
 539.280273438 164.58984375 441.490234375 67 321.280273438 67 c 0
 288.669921875 67 190.200195312 68.849609375 109.959960938 74.3603515625 c 1
321.280273438 605 m 2
 477.520507812 605 606.280273438 477.169921875 606.280273438 320.9296875 c 2
 606.280273438 284.0703125 l 2
 606.280273438 127.830078125 477.520507812 0 321.280273438 0 c 0
 282.900390625 0 185.58984375 3.3701171875 105.129882812 10.759765625 c 1
 108.450195312 54.41015625 l 1
 108.520507812 54.41015625 l 1
 189.280273438 48.8701171875 288.440429688 47 321.280273438 47 c 0
 384.5 47 444.140625 71.740234375 489.280273438 116.759765625 c 0
 534.419921875 161.780273438 559.280273438 221.360351562 559.280273438 284.530273438 c 2
 559.280273438 320.469726562 l 2
 559.280273438 383.639648438 534.400390625 443.25 489.280273438 488.240234375 c 0
 444.16015625 533.23046875 384.5 558 321.280273438 558 c 2
 245.169921875 558 l 2
 157.950195312 558 87 487 87 399.830078125 c 0
 87 296.799804688 193.280273438 249.41015625 246.879882812 241.91015625 c 1
 235.560546875 209 l 1
 137.41015625 221.150390625 40 282.330078125 40 399.830078125 c 0
 40 513 132.040039062 605 245.169921875 605 c 2
 321.280273438 605 l 2
EndSplineSet
EndChar

StartChar: uni05E5
Encoding: 245 1509 22
Width: 680
VWidth: 0
Flags: HW
LayerCount: 2
Fore
SplineSet
340.459960938 160.4296875 m 1
 115.309570312 600 l 1
 168.079101562 600 l 1
 353.209960938 238.549804688 l 1
 463.579101562 362.0703125 507.309570312 512.950195312 524.209960938 600 c 1
 571.989257812 600 l 1
 570 588.849609375 557.129882812 521.309570312 524.569335938 437.940429688 c 0
 492.739257812 356.4296875 435.149414062 242.990234375 340.459960938 160.4296875 c 1
92.8095703125 600 m 1
 475.4296875 -146.900390625 l 1
 422.619140625 -146.900390625 l 1
 40 600 l 1
 92.8095703125 600 l 1
602.559570312 451.509765625 m 0
 579.1796875 382.290039062 548.709960938 317.940429688 511.989257812 260.240234375 c 0
 487.37890625 221.372070312 440.930664062 163.499023438 408.309570312 131.059570312 c 1
 550.709960938 -146.900390625 l 1
 497.899414062 -146.900390625 l 1
 349.849609375 142.099609375 l 1
 393.689453125 179.58984375 433.559570312 226.389648438 468.409179688 281.299804688 c 0
 496.9296875 326.209960938 522.159179688 376.620117188 543.409179688 431.120117188 c 0
 579.579101562 523.870117188 591.549804688 595.379882812 592.040039062 598.379882812 c 2
 592.309570312 600 l 1
 640.079101562 600 l 1
 632.940429688 558.204101562 616.131835938 491.680664062 602.559570312 451.509765625 c 0
EndSplineSet
EndChar

StartChar: uni05E6
Encoding: 246 1510 23
Width: 672
VWidth: 0
Flags: HW
LayerCount: 2
Fore
SplineSet
396.950195312 267.280273438 m 1
 128.450195312 601.150390625 l 1
 191.240234375 601.150390625 l 1
 396.990234375 342 l 1
 446.350585938 421.809570312 481.970703125 512.9296875 509.120117188 600 c 1
 560.120117188 600 l 1
 556.66015625 587.33984375 543.830078125 542.690429688 520.470703125 485.51953125 c 0
 496.08984375 425.870117188 455.240234375 340.690429688 396.950195312 267.280273438 c 1
632.450195312 600 m 1
 585.560546875 446.309570312 529.330078125 334.26953125 469.240234375 251 c 1
 577.240234375 115 l 1
 577.240234375 1.1396484375 l 1
 57.240234375 1.1396484375 l 1
 57.240234375 48.1396484375 l 1
 516.620117188 48 l 1
 516.620117188 118.48046875 l 1
 409.790039062 251.309570312 l 1
 470.98046875 327.370117188 513.720703125 416.129882812 538.98046875 477.959960938 c 0
 567.08984375 546.759765625 579.940429688 596.580078125 580.470703125 598.669921875 c 2
 580.810546875 600 l 1
 632.450195312 600 l 1
57.240234375 115.150390625 m 1
 435.959960938 114.959960938 l 1
 40 601.150390625 l 1
 102.790039062 601.150390625 l 1
 496.620117188 111.440429688 l 1
 496.620117188 68.0595703125 l 1
 57.240234375 68.1396484375 l 1
 57.240234375 115.150390625 l 1
EndSplineSet
EndChar

StartChar: uni05E7
Encoding: 247 1511 24
Width: 651
VWidth: 0
Flags: HW
LayerCount: 2
Fore
SplineSet
40 600 m 1
 611.51953125 600 l 1
 611.51953125 486.190429688 l 1
 435.51953125 0 l 1
 385.540039062 0 l 1
 560.259765625 482.599609375 l 1
 560.859375 484.25 l 1
 560.859375 553 l 1
 40 553 l 1
 40 600 l 1
364.26953125 0 m 1
 314.279296875 0 l 1
 490.209960938 486 l 1
 40 486 l 1
 40 533 l 1
 540.859375 533 l 1
 540.859375 487.75 l 1
 364.26953125 0 l 1
56 -146.900390625 m 1
 56 307 l 1
 103 307 l 1
 103 -146.900390625 l 1
 56 -146.900390625 l 1
123 -146.900390625 m 1
 123 307 l 1
 170 307 l 1
 170 -146.900390625 l 1
 123 -146.900390625 l 1
EndSplineSet
EndChar

StartChar: uni05E8
Encoding: 248 1512 25
Width: 561
VWidth: 0
Flags: HW
LayerCount: 2
Fore
SplineSet
454.669921875 0 m 1
 407.669921875 0 l 1
 407.669921875 320 l 2
 407.669921875 414.049804688 330.669921875 491 236.669921875 491 c 0
 206.650390625 491 127.879882812 490.610351562 48.150390625 487 c 1
 44.830078125 530.639648438 l 1
 129.669921875 536.459960938 207.400390625 538 236.669921875 538 c 0
 356.879882812 538 454.669921875 440.41015625 454.669921875 320.469726562 c 2
 454.669921875 0 l 1
236.669921875 605 m 0
 392.91015625 605 521.669921875 477.169921875 521.700195312 320.9296875 c 2
 521.700195312 0 l 1
 474.700195312 0 l 1
 474.700195312 320.459960938 l 2
 474.700195312 383.629882812 449.8203125 443.240234375 404.700195312 488.23046875 c 0
 359.580078125 533.219726562 299.919921875 557.990234375 236.700195312 557.990234375 c 0
 207.1796875 557.990234375 128.799804688 556.440429688 43.419921875 550.580078125 c 1
 43.3203125 550.580078125 l 1
 40 594.23046875 l 1
 120.459960938 601.629882812 198.290039062 605 236.669921875 605 c 0
EndSplineSet
EndChar

StartChar: uni05E9
Encoding: 249 1513 26
Width: 717
VWidth: 0
Flags: HW
LayerCount: 2
Fore
SplineSet
390.51953125 600 m 1
 437.51953125 600 l 1
 437.51953125 421.389648438 394.899414062 298.790039062 340.240234375 194.790039062 c 1
 301.939453125 210.540039062 l 1
 330.5703125 271 350.530273438 325.4296875 364.719726562 381.900390625 c 0
 382.080078125 450.919921875 390.51953125 522.259765625 390.51953125 600 c 1
283.639648438 218.629882812 m 2
 283.41015625 218.150390625 l 1
 245.120117188 233.900390625 l 1
 288.75 337.139648438 323.51953125 449.599609375 323.51953125 600 c 1
 370.51953125 600 l 1
 370.51953125 425.33984375 326.639648438 309.200195312 283.639648438 218.629882812 c 2
392.759765625 67 m 2
 107 67 l 1
 107 600 l 1
 154 600 l 1
 154 114 l 1
 392.759765625 114 l 2
 486.759765625 114 563.759765625 191 563.759765625 285 c 2
 563.759765625 600 l 1
 610.759765625 600 l 1
 610.759765625 284.530273438 l 2
 610.759765625 164.58984375 512.959960938 67 392.759765625 67 c 2
630.759765625 600 m 1
 677.759765625 600 l 1
 677.759765625 284.0703125 l 2
 677.759765625 127.830078125 549 0 392.759765625 0 c 2
 40 0 l 1
 40 600 l 1
 87 600 l 1
 87 47 l 1
 392.759765625 47 l 2
 455.979492188 47 515.629882812 71.740234375 560.759765625 116.759765625 c 0
 605.889648438 161.780273438 630.759765625 221.360351562 630.759765625 284.530273438 c 2
 630.759765625 600 l 1
EndSplineSet
EndChar

StartChar: uni05EA
Encoding: 250 1514 27
Width: 764
VWidth: 0
Flags: HW
LayerCount: 2
Fore
SplineSet
56.5400390625 66.1796875 m 2
 54.330078125 67.33984375 l 1
 63.8603515625 106.809570312 l 1
 63.8603515625 106.809570312 95.8896484375 97.26953125 113 98.8095703125 c 0
 159.544921875 98.8154296875 197.32421875 136.595703125 197.330078125 183.139648438 c 2
 197.330078125 486.040039062 l 1
 174.060546875 484.879882812 152.700195312 483.469726562 135.139648438 481.73046875 c 1
 127.75 523.58984375 l 1
 165.139648438 527.450195312 205.469726562 530.280273438 244.330078125 532.349609375 c 1
 244.330078125 183.139648438 l 2
 244.330078125 90 178.799804688 56.7998046875 117.490234375 56.76953125 c 2
 117.209960938 56.76953125 l 2
 90.919921875 56.0400390625 60.9404296875 64.080078125 56.5400390625 66.1796875 c 2
439.8203125 605 m 0
 596.060546875 605 724.8203125 477.169921875 724.8203125 320.9296875 c 2
 724.8203125 0 l 1
 677.8203125 0 l 1
 677.8203125 320.469726562 l 2
 677.8203125 383.639648438 652.940429688 443.25 607.8203125 488.240234375 c 0
 562.700195312 533.23046875 503.040039062 558 439.8203125 558 c 0
 438.080078125 558 261.849609375 557.599609375 124.9296875 543.41015625 c 2
 124.219726562 543.330078125 l 1
 116.8203125 585.200195312 l 1
 193.3203125 598.9296875 388.299804688 605 439.8203125 605 c 0
657.8203125 0 m 1
 610.83984375 0 l 1
 610.83984375 320 l 2
 610.83984375 414.049804688 533.83984375 491 439.83984375 491 c 0
 420.219726562 491 368.889648438 490.830078125 311.330078125 489.700195312 c 1
 311.330078125 183.139648438 l 2
 311.330078125 -48.2001953125 70.330078125 -8.2001953125 40 7.83984375 c 1
 49.5400390625 47.48046875 l 1
 59.6796875 43.4501953125 88.5 36.76953125 113.959960938 36.76953125 c 0
 115.190429688 36.76953125 116.419921875 36.76953125 117.629882812 36.76953125 c 0
 185.310546875 36.849609375 264.310546875 75.2197265625 264.310546875 183.139648438 c 2
 264.310546875 533.349609375 l 1
 358.259765625 537.8203125 438.650390625 538 439.8203125 538 c 0
 560.030273438 538 657.8203125 440.41015625 657.8203125 320.469726562 c 2
 657.8203125 0 l 1
EndSplineSet
EndChar

StartChar: a
Encoding: 97 97 29
Width: 650
VWidth: 0
Flags: W
HStem: -5 114<244.901 406.764> 491 114<244.912 406.753>
VStem: 40 114<201.532 398.468> 496 114<198.664 401.313>
LayerCount: 2
Fore
SplineSet
520 600 m 1
 610 600 l 1
 610 0 l 1
 520 0 l 1
 496 66.8896484375 l 1
 447.450195312 22.23046875 383.709960938 -5 314.3203125 -5 c 0
 163.940429688 -5 40 122.830078125 40 279.0703125 c 2
 40 320.9296875 l 2
 40 477.169921875 163.940429688 605 314.3203125 605 c 0
 383.709960938 605 447.450195312 577.76953125 496 533.110351562 c 1
 520 600 l 1
325 109 m 0
 419.049804688 109 496 185.950195312 496 280 c 2
 496 320 l 2
 496 414 419 491 325 491 c 0
 231 491 154 414 154 320 c 2
 154 280 l 2
 154 186 230.950195312 109 325 109 c 0
EndSplineSet
Validated: 1
EndChar

StartChar: b
Encoding: 98 98 30
Width: 650
VWidth: 0
Flags: W
HStem: -5 114<243.247 405.088> 491 114<243.247 405.088> 780 20G<40 154>
VStem: 40 114<198.687 401.313 533.11 800> 496 114<201.532 398.468>
LayerCount: 2
Fore
SplineSet
335.6796875 605 m 0
 486.059570312 605 610 477.169921875 610 320.9296875 c 2
 610 279.0703125 l 2
 610 122.830078125 486.059570312 -5 335.6796875 -5 c 0
 266.290039062 -5 202.549804688 22.23046875 154 66.8896484375 c 1
 130 0 l 1
 40 0 l 1
 40 800 l 1
 154 800 l 1
 154 533.110351562 l 1
 202.549804688 577.76953125 266.290039062 605 335.6796875 605 c 0
496 280 m 2
 496 320 l 2
 496 414 419 491 325 491 c 0
 231 491 154 414 154 320 c 2
 154 280 l 2
 154 186 231 109 325 109 c 0
 419 109 496 186 496 280 c 2
EndSplineSet
Validated: 1
EndChar

StartChar: c
Encoding: 99 99 31
Width: 591
VWidth: 0
Flags: W
HStem: -5 114<245.526 407.379> 491 114<245.537 407.379>
VStem: 40 114<201.532 398.468>
LayerCount: 2
Fore
SplineSet
469.3203125 188.580078125 m 1
 551.26953125 106.639648438 l 1
 503.973632812 45.1142578125 402.604492188 -4.9013671875 325 -5 c 1
 168.759765625 -5 40 122.830078125 40 279.0703125 c 2
 40 320.9296875 l 2
 40 477.169921875 168.759765625 605 325 605 c 1
 402.604492188 604.901367188 503.973632812 554.885742188 551.26953125 493.360351562 c 1
 469.3203125 411.419921875 l 1
 438.91015625 459.16015625 385.490234375 491 325 491 c 0
 231 491 154 414 154 320 c 2
 154 280 l 2
 154 186 230.950195312 109 325 109 c 0
 385.490234375 109 438.91015625 140.83984375 469.3203125 188.580078125 c 1
EndSplineSet
Validated: 5
EndChar

StartChar: d
Encoding: 100 100 32
Width: 650
VWidth: 0
Flags: W
HStem: -5 114<244.901 406.764> 491 114<244.912 406.753> 780 20G<496 610>
VStem: 40 114<201.532 398.468> 496 114<198.664 401.313 533.11 800>
LayerCount: 2
Fore
SplineSet
496 800 m 1
 610 800 l 1
 610 0 l 1
 520 0 l 1
 496 66.8896484375 l 1
 447.450195312 22.23046875 383.709960938 -5 314.3203125 -5 c 0
 163.940429688 -5 40 122.830078125 40 279.0703125 c 2
 40 320.9296875 l 2
 40 477.169921875 163.940429688 605 314.3203125 605 c 0
 383.709960938 605 447.450195312 577.76953125 496 533.110351562 c 1
 496 800 l 1
325 109 m 0
 419.049804688 109 496 185.950195312 496 280 c 2
 496 320 l 2
 496 414 419 491 325 491 c 0
 231 491 154 414 154 320 c 2
 154 280 l 2
 154 186 230.950195312 109 325 109 c 0
EndSplineSet
Validated: 1
EndChar

StartChar: e
Encoding: 101 101 33
Width: 650
VWidth: 0
Flags: HW
LayerCount: 2
Fore
SplineSet
325 605 m 0
 481.240234375 605 610 477.169921875 610 320.9296875 c 2
 610 253.290039062 l 1
 156.110351562 253.290039062 l 1
 169 171.809570312 240 109 325 109 c 0
 365.922851562 109.030273438 421.780273438 133.3515625 449.6796875 163.290039062 c 1
 585 163.290039062 l 1
 540.219726562 64.33984375 440.059570312 -5 325 -5 c 0
 168.759765625 -5 40 122.830078125 40 279.0703125 c 2
 40 320.9296875 l 2
 40 477.169921875 168.759765625 605 325 605 c 0
325 491 m 0
 238.849609375 491 167.049804688 426.419921875 155.599609375 343.290039062 c 1
 494.400390625 343.290039062 l 1
 483 426.419921875 411.150390625 491 325 491 c 0
EndSplineSet
Validated: 1
EndChar

StartChar: f
Encoding: 102 102 34
Width: 447
VWidth: 0
Flags: W
HStem: 0 21G<160.41 274.41> 486 114<40 160.41 274.41 393.86> 798 114<304.507 407.881>
VStem: 160.41 114<0 486 600 767.876>
LayerCount: 2
Fore
SplineSet
274.41015625 713.639648438 m 2
 274.41015625 600 l 1
 393.860351562 600 l 1
 407.860351562 486 l 1
 274.41015625 486 l 1
 274.41015625 0 l 1
 160.41015625 0 l 1
 160.41015625 486 l 1
 40 486 l 1
 40 600 l 1
 160.41015625 600 l 1
 160.41015625 713.639648438 l 2
 160.41015625 823 249.380859375 912 358.740234375 912 c 2
 407.880859375 912 l 1
 407.880859375 798 l 1
 358.740234375 798 l 2
 312.228515625 797.9453125 274.44921875 760.151367188 274.41015625 713.639648438 c 2
EndSplineSet
Validated: 1
EndChar

StartChar: g
Encoding: 103 103 35
Width: 650
VWidth: 0
Flags: HW
LayerCount: 2
Fore
SplineSet
520 599 m 1
 610 599 l 1
 610 -2.3798828125 l 1
 609.25 -2.3798828125 l 1
 598.599609375 -149.169921875 474.360351562 -266 325 -266 c 0
 247.395507812 -265.901367188 146.026367188 -215.885742188 98.73046875 -154.360351562 c 1
 180.6796875 -72.419921875 l 1
 211.08984375 -120.16015625 264.509765625 -152 325 -152 c 0
 419 -152 496 -75 496 19 c 2
 496 65.8896484375 l 1
 447.450195312 21.23046875 383.709960938 -6 314.3203125 -6 c 0
 163.940429688 -6 40 121.830078125 40 278.0703125 c 2
 40 319.9296875 l 2
 40 476.169921875 163.940429688 604 314.3203125 604 c 0
 383.709960938 604 447.450195312 576.76953125 496 532.099609375 c 1
 520 599 l 1
325 108 m 0
 419.049804688 108 496 184.950195312 496 279 c 2
 496 319 l 2
 496 413 419 490 325 490 c 0
 231 490 154 413 154 319 c 2
 154 279 l 2
 154 185 230.950195312 108 325 108 c 0
EndSplineSet
Validated: 1
EndChar

StartChar: h
Encoding: 104 104 36
Width: 627
VWidth: 0
Flags: W
HStem: 0 21G<40 154 473 587> 780 20G<40 154>
VStem: 40 114<0 410.83 524.29 800> 473 114<0 405.797>
LayerCount: 2
Fore
SplineSet
154 524.290039062 m 1
 287 678.83984375 587 616.530273438 587 331.5 c 2
 587 0 l 1
 473 0 l 1
 473 331.5 l 2
 473 419.450195312 401.450195312 491 313.5 491 c 0
 225.549804688 491 154 419.450195312 154 331.5 c 2
 154 0 l 1
 40 0 l 1
 40 800 l 1
 154 800 l 1
 154 524.290039062 l 1
EndSplineSet
Validated: 33
EndChar

StartChar: i
Encoding: 105 105 37
Width: 200
VWidth: 0
Flags: HW
LayerCount: 2
Fore
SplineSet
43 0 m 1
 43 600 l 1
 157 600 l 1
 157 0 l 1
 43 0 l 1
40 740 m 0
 40 773.13671875 66.86328125 800 100 800 c 0
 133.13671875 800 160 773.13671875 160 740 c 0
 160 706.86328125 133.13671875 680 100 680 c 0
 66.86328125 680 40 706.86328125 40 740 c 0
EndSplineSet
Validated: 1
EndChar

StartChar: j
Encoding: 106 106 38
Width: 319
VWidth: 0
Flags: W
HStem: 580 20G<162.86 276.86> 680 120<173.562 266.159>
VStem: 162.86 114<-37.236 600 691.92 788.08>
LayerCount: 2
Fore
SplineSet
159.860351562 740 m 0
 159.860351562 773.13671875 186.723632812 800 219.860351562 800 c 0
 252.997070312 800 279.860351562 773.13671875 279.860351562 740 c 0
 279.860351562 706.86328125 252.997070312 680 219.860351562 680 c 0
 186.723632812 680 159.860351562 706.86328125 159.860351562 740 c 0
162.860351562 600 m 1
 276.860351562 600 l 1
 276.860351562 32.6796875 l 2
 276.860351562 -88.1904296875 187.640625 -185 68.48046875 -200 c 1
 40 -101.700195312 l 1
 40 -101.700195312 162.860351562 -75.5400390625 162.860351562 32.6796875 c 2
 162.860351562 600 l 1
EndSplineSet
Validated: 1
EndChar

StartChar: k
Encoding: 107 107 39
Width: 589
VWidth: 0
Flags: W
HStem: 0 21G<40 154 407.858 549.68> 580 20G<399.257 549.68> 780 20G<40 154>
VStem: 40 114<0 148.11 299.91 800>
LayerCount: 2
Fore
SplineSet
549.6796875 600 m 1
 307.08984375 322.950195312 l 1
 549.6796875 0 l 1
 422.740234375 0 l 1
 239.700195312 245.990234375 l 1
 154 148.110351562 l 1
 154 0 l 1
 40 0 l 1
 40 800 l 1
 154 800 l 1
 154 299.91015625 l 1
 416.76953125 600 l 1
 549.6796875 600 l 1
EndSplineSet
Validated: 1
EndChar

StartChar: l
Encoding: 108 108 40
Width: 194
VWidth: 0
Flags: HW
LayerCount: 2
Fore
SplineSet
40 0 m 1
 40 800 l 1
 154 800 l 1
 154 0 l 1
 40 0 l 1
EndSplineSet
Validated: 1
EndChar

StartChar: m
Encoding: 109 109 41
Width: 1060
VWidth: 0
Flags: W
HStem: 0 21G<40 154 473 587 906 1020> 580 20G<40 136.34>
VStem: 40 114<0 410.83> 473 114<0 410.844> 906 114<0 410.83>
CounterMasks: 1 38
LayerCount: 2
Fore
SplineSet
555.66015625 477.669921875 m 0
 664 688.209960938 1020 642 1020 331.5 c 2
 1020 0 l 1
 906 0 l 1
 906 331.5 l 2
 906 419.450195312 834.440429688 491 746.5 491 c 0
 658.559570312 491 587 419.469726562 587 331.530273438 c 2
 587 0 l 1
 473 0 l 1
 473 331.530273438 l 2
 473 419.459960938 401.450195312 491 313.5 491 c 0
 225.549804688 491 154 419.450195312 154 331.5 c 2
 154 0 l 1
 40 0 l 1
 40 600 l 1
 130 600 l 1
 154 524.290039062 l 1
 260.400390625 647.919921875 473.639648438 632.76953125 554.709960938 475.860351562 c 1
 555.030273438 476.459960938 555.349609375 477.059570312 555.66015625 477.669921875 c 0
EndSplineSet
Validated: 33
EndChar

StartChar: n
Encoding: 110 110 42
Width: 627
VWidth: 0
Flags: HW
LayerCount: 2
Fore
SplineSet
154 524.290039062 m 1
 287 678.83984375 587 616.530273438 587 331.5 c 2
 587 0 l 1
 473 0 l 1
 473 331.5 l 2
 473 419.450195312 401.450195312 491 313.5 491 c 0
 225.549804688 491 154 419.450195312 154 331.5 c 2
 154 0 l 1
 40 0 l 1
 40 600 l 1
 130 600 l 1
 154 524.290039062 l 1
EndSplineSet
Validated: 33
EndChar

StartChar: o
Encoding: 111 111 43
Width: 650
VWidth: 0
Flags: W
HStem: -5 114<245.526 404.463> 491 114<245.537 404.463>
VStem: 40 114<201.532 398.468> 496 114<201.532 398.468>
LayerCount: 2
Fore
SplineSet
325 605 m 1
 481.240234375 605 610 477.169921875 610 320.9296875 c 2
 610 279.0703125 l 2
 610 122.830078125 481.240234375 -5 325 -5 c 1
 168.759765625 -5 40 122.830078125 40 279.0703125 c 2
 40 320.9296875 l 2
 40 477.169921875 168.759765625 605 325 605 c 1
496 280 m 2
 496 320 l 2
 496 414.049804688 419 491 325 491 c 1
 231 491 154 414 154 320 c 2
 154 280 l 2
 154 186 230.950195312 109 325 109 c 1
 419 109 496 186 496 280 c 2
EndSplineSet
Validated: 5
EndChar

StartChar: p
Encoding: 112 112 44
Width: 650
VWidth: 0
Flags: HW
LayerCount: 2
Fore
SplineSet
335.6796875 604 m 0
 486.059570312 604 610 476.190429688 610 319.950195312 c 2
 610 278.08984375 l 2
 610 121.849609375 486.059570312 -6 335.6796875 -6 c 0
 266.290039062 -6 202.549804688 21.25 154 65.919921875 c 1
 154 -200 l 1
 40 -200 l 1
 40 599 l 1
 130 599 l 1
 154 532.110351562 l 1
 202.549804688 576.76953125 266.290039062 604 335.6796875 604 c 0
496 279 m 2
 496 319 l 2
 496 413.049804688 419.049804688 490 325 490 c 0
 230.950195312 490 154 413.049804688 154 319 c 2
 154 279 l 2
 154 185 231 108 325 108 c 0
 419 108 496 185 496 279 c 2
EndSplineSet
Validated: 1
EndChar

StartChar: q
Encoding: 113 113 45
Width: 650
VWidth: 0
Flags: W
HStem: -6 114<244.912 406.764> 490 114<244.901 406.764>
VStem: 40 114<200.55 397.487> 496 114<-200 65.9004 197.687 400.336>
LayerCount: 2
Fore
SplineSet
520 599 m 1
 610 599 l 1
 610 -200 l 1
 496 -200 l 1
 496 65.900390625 l 1
 447.450195312 21.23046875 383.709960938 -6 314.3203125 -6 c 0
 163.940429688 -6 40 121.849609375 40 278.08984375 c 2
 40 319.950195312 l 2
 40 476.190429688 163.940429688 604 314.3203125 604 c 0
 383.709960938 604 447.450195312 576.790039062 496 532.110351562 c 1
 520 599 l 1
325 108 m 0
 419.049804688 108 496 185 496 279 c 2
 496 319 l 2
 496 413.049804688 419.049804688 490 325 490 c 0
 230.950195312 490 154 413.049804688 154 319 c 2
 154 279 l 2
 154 185 231 108 325 108 c 0
EndSplineSet
Validated: 1
EndChar

StartChar: r
Encoding: 114 114 46
Width: 430
VWidth: 0
Flags: W
HStem: 0 21G<40 154> 493 114<243.687 390>
VStem: 40 114<0 403.336>
LayerCount: 2
Fore
SplineSet
335.6796875 607 m 2
 390 607 l 1
 390 493 l 1
 325 493 l 2
 231 493 154 416.049804688 154 322 c 2
 154 0 l 1
 40 0 l 1
 40 602 l 1
 130 602 l 1
 154 535.110351562 l 1
 202.549804688 579.76953125 266.290039062 607 335.6796875 607 c 2
EndSplineSet
Validated: 1
EndChar

StartChar: s
Encoding: 115 115 47
Width: 594
VWidth: 0
Flags: W
LayerCount: 2
Fore
SplineSet
547.986328125 424.440429688 m 1
 446.81640625 413.75 l 1
 446.81640625 413.75 441.74609375 497.5 308.645507812 504.98046875 c 0
 175.545898438 512.459960938 161.125976562 429.799804688 161.125976562 429.799804688 c 1
 154.435546875 311 567.49609375 406.299804688 553.916015625 164.690429688 c 1
 553.916015625 164.690429688 529.625976562 -18.2197265625 280.015625 -4.1904296875 c 0
 30.40625 9.83984375 46.265625 176.200195312 46.265625 176.200195312 c 1
 147.446289062 186.889648438 l 1
 147.446289062 186.889648438 152.515625 103.139648438 285.616210938 95.66015625 c 0
 418.715820312 88.1796875 433.125976562 170.830078125 433.125976562 170.830078125 c 1
 439.776367188 289 26.7861328125 195 40.326171875 435.940429688 c 1
 40.326171875 435.940429688 64.6259765625 618.849609375 314.236328125 604.8203125 c 0
 563.845703125 590.790039062 547.986328125 424.440429688 547.986328125 424.440429688 c 1
EndSplineSet
EndChar

StartChar: t
Encoding: 116 116 48
Width: 447
VWidth: 0
Flags: W
HStem: 0 114<304.517 407.88> 486 114<40 160.41 274.41 393.88> 780 20G<160.41 274.41>
VStem: 160.41 114<144.107 486 600 800>
LayerCount: 2
Fore
SplineSet
274.41015625 198.330078125 m 2
 274.46484375 151.834960938 312.245117188 114.0546875 358.740234375 114 c 2
 407.879882812 114 l 1
 407.879882812 0 l 1
 358.740234375 0 l 2
 249.41015625 0 160.41015625 89 160.41015625 198.330078125 c 2
 160.41015625 486 l 1
 40 486 l 1
 40 600 l 1
 160.41015625 600 l 1
 160.41015625 800 l 1
 274.41015625 800 l 1
 274.41015625 600 l 1
 393.879882812 600 l 1
 407.879882812 486 l 1
 274.41015625 486 l 1
 274.41015625 198.330078125 l 2
EndSplineSet
Validated: 1
EndChar

StartChar: u
Encoding: 117 117 49
Width: 627
VWidth: 0
Flags: W
HStem: 0 21G<490.66 587> 580 20G<40 154 473 587>
VStem: 40 114<194.21 600> 473 114<189.148 600>
LayerCount: 2
Fore
SplineSet
473 600 m 1
 587 600 l 1
 587 0 l 1
 497 0 l 1
 473 75.7099609375 l 1
 340 -78.83984375 40 -16.5 40 268.5 c 2
 40 600 l 1
 154 600 l 1
 154 268.5 l 2
 154 180.549804688 225.549804688 109 313.5 109 c 0
 401.450195312 109 473 180.5 473 268.5 c 2
 473 600 l 1
EndSplineSet
Validated: 33
EndChar

StartChar: v
Encoding: 118 118 50
Width: 627
VWidth: 0
Flags: W
HStem: 0 21G<249.283 377.717> 580 20G<40 160.982 466.018 587>
LayerCount: 2
Fore
SplineSet
473 600 m 1
 587 600 l 1
 370.5 0 l 1
 256.5 0 l 1
 40 600 l 1
 154 600 l 1
 313.5 143.099609375 l 1
 473 600 l 1
EndSplineSet
Validated: 5
EndChar

StartChar: w
Encoding: 119 119 51
Width: 976
VWidth: 0
Flags: HW
LayerCount: 2
Fore
SplineSet
936 600 m 1
 736.33984375 0.5 l 1
 736.33984375 0 l 1
 622.33984375 0 l 1
 622.33984375 0.5 l 1
 488 444 l 1
 353.66015625 0.5 l 1
 353.66015625 0 l 1
 239.66015625 0 l 1
 239.66015625 0.5 l 1
 40 600 l 1
 154 600 l 1
 298.459960938 154 l 1
 431 599.5 l 1
 431 600 l 1
 545 600 l 1
 545 599.5 l 1
 677.530273438 154 l 1
 822 600 l 1
 936 600 l 1
EndSplineSet
Validated: 5
EndChar

StartChar: x
Encoding: 120 120 52
Width: 630
VWidth: 0
Flags: W
HStem: 0 21G<40 192.01 438.15 590.16> 580 20G<40 192.01 438.15 590.16>
LayerCount: 2
Fore
SplineSet
40 0 m 1
 245.940429688 300 l 1
 40 600 l 1
 178.280273438 600 l 1
 315.080078125 400.719726562 l 1
 451.879882812 600 l 1
 590.16015625 600 l 1
 384.219726562 300 l 1
 590.16015625 0 l 1
 451.879882812 0 l 1
 315.080078125 199.280273438 l 1
 178.280273438 0 l 1
 40 0 l 1
EndSplineSet
Validated: 1
EndChar

StartChar: y
Encoding: 121 121 53
Width: 627
VWidth: 0
Flags: HW
LayerCount: 2
Fore
SplineSet
587 600 m 1
 355.1796875 -45.4404296875 l 2
 314.330078125 -159.190429688 197.650390625 -220.150390625 80.4296875 -194 c 1
 86.8896484375 -91.900390625 l 1
 86.8896484375 -91.900390625 211.3203125 -108.75 247.889648438 -6.900390625 c 2
 253.419921875 8.490234375 l 1
 40 600 l 1
 154 600 l 1
 313.48046875 143.099609375 l 1
 473 600 l 1
 587 600 l 1
EndSplineSet
Validated: 33
EndChar

StartChar: z
Encoding: 122 122 54
Width: 580
VWidth: 0
Flags: W
HStem: 0 114<179.37 540> 486 114<40 400.63>
LayerCount: 2
Fore
SplineSet
540 600 m 1
 540 486 l 1
 179.370117188 114 l 1
 540 114 l 1
 540 0 l 1
 40 0 l 1
 40 114 l 1
 400.629882812 486 l 1
 40 486 l 1
 40 600 l 1
 540 600 l 1
EndSplineSet
Validated: 1
EndChar

StartChar: E
Encoding: 69 69 55
Width: 703
VWidth: 0
Flags: W
HStem: 0 114<154 663.5> 252.59 114<154 526.12> 686 114<154 663.5>
VStem: 40 114<114 252.59 366.59 686>
LayerCount: 2
Fore
SplineSet
663.5 686 m 1
 154 686 l 1
 154 366.58984375 l 1
 526.120117188 366.58984375 l 1
 526.120117188 252.58984375 l 1
 154 252.58984375 l 1
 154 114 l 1
 663.5 114 l 1
 663.5 0 l 1
 40 0 l 1
 40 800 l 1
 663.5 800 l 1
 663.5 686 l 1
EndSplineSet
Validated: 1
EndChar

StartChar: C
Encoding: 67 67 56
Width: 802
VWidth: 0
Flags: W
HStem: -5 114<315.675 522.894> 691.35 113.98<315.675 522.893>
VStem: 40 114<269.374 530.99>
LayerCount: 2
Fore
SplineSet
662.620117188 269.190429688 m 1
 762.44921875 215.139648438 l 1
 702.189453125 85.509765625 570.120117188 -5 418.58984375 -5 c 0
 211.049804688 -5 40 164.809570312 40 372.389648438 c 2
 40 428 l 2
 40 635.51953125 211.049804688 805.330078125 418.58984375 805.330078125 c 0
 570.120117188 805.330078125 702.189453125 714.8203125 762.419921875 585.169921875 c 1
 662.58984375 531.169921875 l 1
 622.479492188 625.030273438 528.01953125 691.349609375 418.58984375 691.349609375 c 0
 273.069335938 691.349609375 154 574.049804688 154 430.6796875 c 2
 154 369.6796875 l 2
 154 226.309570312 273.069335938 109 418.58984375 109 c 0
 528.01953125 109 622.479492188 175.330078125 662.620117188 269.190429688 c 1
EndSplineSet
Validated: 1
EndChar

StartChar: D
Encoding: 68 68 57
Width: 801
VWidth: 0
Flags: W
HStem: 0 114<154 485.339> 686 114<154 485.339>
VStem: 40 114<114 686> 647.199 114<274.357 525.643>
LayerCount: 2
Fore
SplineSet
382.599609375 800 m 2
 590.149414062 800 761.19921875 630.190429688 761.19921875 422.639648438 c 2
 761.19921875 377.360351562 l 2
 761.19921875 169.809570312 590.149414062 0 382.599609375 0 c 2
 40 0 l 1
 40 800 l 1
 382.599609375 800 l 2
647.19921875 374.6796875 m 2
 647.19921875 425.3203125 l 2
 647.19921875 568.690429688 528.129882812 686 382.599609375 686 c 2
 154 686 l 1
 154 114 l 1
 382.599609375 114 l 2
 528.129882812 114 647.19921875 231.309570312 647.19921875 374.6796875 c 2
EndSplineSet
Validated: 1
EndChar

StartChar: F
Encoding: 70 70 58
Width: 703
VWidth: 0
Flags: W
HStem: 0 21G<40 154> 252.59 114<154 526.12> 686 114<154 663.5>
VStem: 40 114<0 252.59 366.59 686>
LayerCount: 2
Fore
SplineSet
663.5 686 m 1
 154 686 l 1
 154 366.58984375 l 1
 526.120117188 366.58984375 l 1
 526.120117188 252.58984375 l 1
 154 252.58984375 l 1
 154 0 l 1
 40 0 l 1
 40 800 l 1
 663.5 800 l 1
 663.5 686 l 1
EndSplineSet
Validated: 1
EndChar

StartChar: G
Encoding: 71 71 59
Width: 837
VWidth: 0
Flags: W
HStem: -5 114<315.68 522.317> 309.76 114<418.6 676.08> 691.33 114<315.68 522.902>
VStem: 40 114<269.374 530.99>
LayerCount: 2
Fore
SplineSet
418.599609375 423.759765625 m 1
 797.19921875 423.759765625 l 1
 797.19921875 372.360351562 l 2
 797.19921875 164.809570312 626.149414062 -5 418.599609375 -5 c 0
 211.049804688 -5 40 164.809570312 40 372.389648438 c 2
 40 428 l 2
 40 635.51953125 211.049804688 805.330078125 418.599609375 805.330078125 c 0
 570.129882812 805.330078125 702.189453125 714.8203125 762.4296875 585.150390625 c 1
 662.599609375 531.150390625 l 1
 622.489257812 625.009765625 528.029296875 691.330078125 418.599609375 691.330078125 c 0
 273.069335938 691.330078125 154 574 154 430.6796875 c 2
 154 369.6796875 l 2
 154 226.309570312 273.069335938 109 418.599609375 109 c 0
 543.219726562 109 648.419921875 195 676.080078125 309.759765625 c 1
 418.599609375 309.759765625 l 1
 418.599609375 423.759765625 l 1
EndSplineSet
Validated: 1
EndChar

StartChar: H
Encoding: 72 72 60
Width: 779
VWidth: 0
Flags: W
HStem: 0 21G<40 154 625.48 739.48> 252.59 114<154 625.48> 780 20G<40 154 625.48 739.48>
VStem: 40 114<0 252.59 366.59 800> 625.48 114<0 252.59 366.59 800>
LayerCount: 2
Fore
SplineSet
625.48046875 800 m 1
 739.48046875 800 l 1
 739.48046875 0 l 1
 625.48046875 0 l 1
 625.48046875 252.58984375 l 1
 154 252.58984375 l 1
 154 0 l 1
 40 0 l 1
 40 800 l 1
 154 800 l 1
 154 366.58984375 l 1
 625.48046875 366.58984375 l 1
 625.48046875 800 l 1
EndSplineSet
Validated: 1
EndChar

StartChar: I
Encoding: 73 73 61
Width: 194
VWidth: 0
Flags: W
HStem: 0 21G<40 154> 780 20G<40 154>
VStem: 40 114<0 800>
LayerCount: 2
Fore
SplineSet
40 0 m 1
 40 800 l 1
 154 800 l 1
 154 0 l 1
 40 0 l 1
EndSplineSet
Validated: 1
EndChar

StartChar: J
Encoding: 74 74 62
Width: 401
VWidth: 0
Flags: W
HStem: 0 114<40 193.374> 686 114<112.66 247.83>
VStem: 247.83 114<169.754 686>
LayerCount: 2
Fore
SplineSet
112.66015625 800 m 1
 361.830078125 800 l 1
 361.830078125 234.709960938 l 2
 361.830078125 103.099609375 256.049804688 0 121 0 c 2
 40 0 l 1
 40 114 l 1
 121 114 l 2
 193.310546875 114 247.830078125 165.900390625 247.830078125 234.709960938 c 2
 247.830078125 686 l 1
 112.66015625 686 l 1
 112.66015625 800 l 1
EndSplineSet
Validated: 1
EndChar

StartChar: K
Encoding: 75 75 63
Width: 696
VWidth: 0
Flags: W
HStem: 0 21G<40 154 475.42 656.64> 780 20G<40 154 475.42 656.64>
VStem: 40 114<0 341.42 458.58 800>
LayerCount: 2
Fore
SplineSet
656.639648438 800 m 1
 256.639648438 400 l 1
 656.639648438 0 l 1
 495.419921875 0 l 1
 176.030273438 319.389648438 l 1
 154 341.419921875 l 1
 154 0 l 1
 40 0 l 1
 40 800 l 1
 154 800 l 1
 154 458.580078125 l 1
 176.030273438 480.610351562 l 1
 495.419921875 800 l 1
 656.639648438 800 l 1
EndSplineSet
Validated: 1
EndChar

StartChar: L
Encoding: 76 76 64
Width: 695
VWidth: 0
Flags: W
HStem: 0 114<154 655.5> 780 20G<40 154>
VStem: 40 114<114 800>
LayerCount: 2
Fore
SplineSet
154 114 m 1
 655.5 114 l 1
 655.5 0 l 1
 40 0 l 1
 40 800 l 1
 154 800 l 1
 154 114 l 1
EndSplineSet
Validated: 1
EndChar

StartChar: M
Encoding: 77 77 65
Width: 844
VWidth: 0
Flags: HW
LayerCount: 2
Fore
SplineSet
690.8203125 800 m 1
 804.8203125 800 l 1
 804.8203125 0 l 1
 690.8203125 0 l 1
 690.8203125 592.969726562 l 1
 422.41015625 200 l 1
 154 592.969726562 l 1
 154 0 l 1
 40 0 l 1
 40 800 l 1
 154 800 l 1
 422.41015625 402.690429688 l 1
 690.8203125 800 l 1
EndSplineSet
Validated: 1
EndChar

StartChar: N
Encoding: 78 78 66
Width: 795
VWidth: 0
Flags: HW
LayerCount: 2
Fore
SplineSet
641.48046875 800 m 1
 755.48046875 800 l 1
 755.48046875 0 l 1
 641.48046875 0 l 1
 154 616.33984375 l 1
 154 0 l 1
 40 0 l 1
 40 800 l 1
 154 800.009765625 l 1
 641.48046875 183.879882812 l 1
 641.48046875 800 l 1
EndSplineSet
Validated: 1
EndChar

StartChar: O
Encoding: 79 79 67
Width: 837
VWidth: 0
Flags: W
HStem: -5 114<315.68 521.519> 691.33 114<315.68 521.519>
VStem: 40 114<269.374 530.99> 683.199 114<269.357 530.99>
LayerCount: 2
Fore
SplineSet
418.599609375 805.330078125 m 0
 626.149414062 805.330078125 797.19921875 635.51953125 797.19921875 428 c 2
 797.19921875 372.360351562 l 2
 797.19921875 164.809570312 626.149414062 -5 418.599609375 -5 c 0
 211.049804688 -5 40 164.809570312 40 372.389648438 c 2
 40 428 l 2
 40 635.51953125 211.049804688 805.330078125 418.599609375 805.330078125 c 0
683.19921875 369.6796875 m 2
 683.19921875 430.66015625 l 2
 683.19921875 574 564.129882812 691.330078125 418.599609375 691.330078125 c 0
 273.069335938 691.330078125 154 574 154 430.6796875 c 2
 154 369.6796875 l 2
 154 226.309570312 273.069335938 109 418.599609375 109 c 0
 564.129882812 109 683.19921875 226.309570312 683.19921875 369.6796875 c 2
EndSplineSet
Validated: 1
EndChar

StartChar: T
Encoding: 84 84 68
Width: 779
VWidth: 0
Flags: W
HStem: -0.620117 21G<332.74 446.74> -0.620117 21G<332.74 446.74> 686 114<40 332.74 446.74 739.48>
VStem: 332.74 114<-0.620117 686>
LayerCount: 2
Fore
SplineSet
739.48046875 800 m 1xb0
 739.48046875 686 l 1
 446.740234375 686 l 1
 446.740234375 -0.6201171875 l 1
 332.740234375 -0.6201171875 l 1
 332.740234375 686 l 1
 40 686 l 1
 40 800 l 1
 739.48046875 800 l 1xb0
EndSplineSet
Validated: 1
EndChar

StartChar: Y
Encoding: 89 89 69
Width: 848
VWidth: 0
Flags: W
HStem: 0 21G<367.25 481.25> 780 20G<40 184.604 663.896 808.5>
VStem: 367.25 114<0 250.64>
LayerCount: 2
Fore
SplineSet
808.5 800 m 1
 481.25 250.639648438 l 1
 481.25 0 l 1
 367.25 0 l 1
 367.25 250.639648438 l 1
 40 800 l 1
 172.690429688 800 l 1
 424.25 377.709960938 l 1
 675.809570312 800 l 1
 808.5 800 l 1
EndSplineSet
Validated: 1
EndChar

StartChar: Z
Encoding: 90 90 70
Width: 735
VWidth: 0
Flags: W
HStem: 0 114<192.289 695.039> 686 114<40 542.739>
LayerCount: 2
Fore
SplineSet
695.0390625 114 m 1
 695.0390625 0 l 1
 40 0 l 1
 40 114 l 1
 542.739257812 686 l 1
 40 686 l 1
 40 800 l 1
 695.0390625 800 l 1
 695.0390625 686 l 1
 192.2890625 114 l 1
 695.0390625 114 l 1
EndSplineSet
Validated: 1
EndChar

StartChar: A
Encoding: 65 65 71
Width: 914
VWidth: 0
Flags: W
HStem: 0 21G<40 173.615 741.106 874.7> 252.59 114<327.36 587.36> 780 20G<386.125 528.595>
LayerCount: 2
Fore
SplineSet
749.98046875 0 m 1
 637.900390625 252.58984375 l 1
 276.8203125 252.58984375 l 1
 164.740234375 0 l 1
 40 0 l 1
 395 800 l 1
 519.720703125 800 l 1
 874.700195312 0 l 1
 749.98046875 0 l 1
327.360351562 366.58984375 m 1
 587.360351562 366.58984375 l 1
 457.360351562 659.469726562 l 1
 327.360351562 366.58984375 l 1
EndSplineSet
Validated: 1
EndChar

StartChar: B
Encoding: 66 66 72
Width: 725
VWidth: 0
Flags: W
HStem: 0 114<154 520.973> 343 114<154 523.338> 686 114<154 520.973>
VStem: 40 114<114 343 457 686> 571.569 114<164.088 295.367 504.633 635.912>
CounterMasks: 1 e0
LayerCount: 2
Fore
SplineSet
685.569335938 571.5 m 0
 685.569335938 503.1796875 659.319335938 441.870117188 617.719726562 400 c 1
 659.319335938 358.129882812 685.569335938 296.8203125 685.569335938 228.5 c 0
 685.569335938 102.299804688 596.029296875 0 485.569335938 0 c 2
 40 0 l 1
 40 800 l 1
 485.569335938 800 l 2
 596.029296875 800 685.569335938 697.700195312 685.569335938 571.5 c 0
457.069335938 114 m 2
 520.2734375 114 571.569335938 165.295898438 571.569335938 228.5 c 0
 571.569335938 291.704101562 520.2734375 343 457.069335938 343 c 2
 154 343 l 1
 154 114 l 1
 457.069335938 114 l 2
457.069335938 457 m 2
 520.2734375 457 571.569335938 508.295898438 571.569335938 571.5 c 0
 571.569335938 634.704101562 520.2734375 686 457.069335938 686 c 2
 154 686 l 1
 154 457 l 1
 457.069335938 457 l 2
EndSplineSet
Validated: 1
EndChar

StartChar: P
Encoding: 80 80 73
Width: 725
VWidth: 0
Flags: W
HStem: 0 21G<40 154> 252.59 114<154 486.793> 686 114<154 486.793>
VStem: 40 114<0 252.59 366.59 686> 571.57 114<451.361 601.223>
LayerCount: 2
Fore
SplineSet
40 800 m 1
 411.860351562 800 l 2
 563.030273438 800 685.5703125 677.459960938 685.5703125 526.290039062 c 1
 685.5703125 375.129882812 563.030273438 252.58984375 411.860351562 252.58984375 c 2
 154 252.58984375 l 1
 154 0 l 1
 40 0 l 1
 40 800 l 1
411.860351562 366.58984375 m 2
 411.862304688 366.58984375 411.8671875 366.58984375 411.870117188 366.58984375 c 0
 500.024414062 366.58984375 571.5703125 438.135742188 571.5703125 526.290039062 c 1
 571.5703125 526.29296875 571.5703125 526.296875 571.5703125 526.299804688 c 0
 571.5703125 614.454101562 500.024414062 686 411.870117188 686 c 0
 411.8671875 686 411.862304688 686 411.860351562 686 c 2
 154 686 l 1
 154 366.58984375 l 1
 411.860351562 366.58984375 l 2
EndSplineSet
Validated: 5
EndChar

StartChar: Q
Encoding: 81 81 74
Width: 848
VWidth: 0
Flags: W
HStem: -5 114<324.497 519.427 737.14 808.6> 231 114<335.774 501.426> 691.33 114<315.68 521.519>
VStem: 40 114.04<270.224 530.99> 683.199 114.04<270.531 530.99>
LayerCount: 2
Fore
SplineSet
808.599609375 109.419921875 m 1
 808.599609375 -4.8095703125 l 1
 753.809570312 -3.1044921875 675.329101562 26.9560546875 633.419921875 62.2900390625 c 1
 579.958007812 25.1455078125 483.734375 -5 418.635742188 -5 c 0
 418.625976562 -5 418.609375 -5 418.599609375 -5 c 0
 211.049804688 -5 40 164.809570312 40 372.389648438 c 2
 40 428 l 2
 40 635.51953125 211.049804688 805.330078125 418.599609375 805.330078125 c 0
 626.149414062 805.330078125 797.19921875 635.51953125 797.239257812 428 c 2
 797.239257812 372.419921875 l 2
 797.239257812 285.58984375 767.239257812 205.419921875 717.239257812 141.419921875 c 1
 739.840820312 125.125 780.770507812 110.7890625 808.599609375 109.419921875 c 1
418.599609375 109 m 0
 418.669921875 109 418.783203125 109 418.852539062 109 c 0
 462.060546875 109 526.584960938 128.026367188 562.879882812 151.469726562 c 1
 532.459960938 199.1796875 479.069335938 231 418.599609375 231 c 0
 358.129882812 231 304.739257812 199.1796875 274.319335938 151.469726562 c 1
 310.614257812 128.026367188 375.138671875 109 418.346679688 109 c 0
 418.416015625 109 418.529296875 109 418.599609375 109 c 0
683.19921875 369.6796875 m 2
 683.19921875 430.66015625 l 2
 683.19921875 574 564.129882812 691.330078125 418.599609375 691.330078125 c 0
 273.069335938 691.330078125 154 574 154.040039062 430.6796875 c 2
 154.040039062 369.6796875 l 2
 154.040039062 369.655273438 154.040039062 369.615234375 154.040039062 369.590820312 c 0
 154.040039062 329.03125 171.51171875 268.21484375 193.040039062 233.83984375 c 1
 245.359375 301.330078125 327.279296875 345 418.599609375 345 c 0
 509.919921875 345 591.83984375 301.3203125 644.19921875 233.830078125 c 1
 665.727539062 268.209960938 683.19921875 329.034179688 683.19921875 369.59765625 c 0
 683.19921875 369.62109375 683.19921875 369.657226562 683.19921875 369.6796875 c 2
EndSplineSet
Validated: 33
EndChar

StartChar: R
Encoding: 82 82 75
Width: 725
VWidth: 0
Flags: W
HStem: 0 21G<40 154 550.896 685.57> 252.59 114<154 443.4> 686 114<154 486.793>
VStem: 40 114<0 252.59 366.59 686> 571.57 114<446.818 601.223>
LayerCount: 2
Fore
SplineSet
685.5703125 526.290039062 m 1
 685.5703125 526.2578125 685.5703125 526.206054688 685.5703125 526.173828125 c 0
 685.5703125 440.344726562 625.716796875 335.049804688 551.969726562 291.139648438 c 1
 685.5703125 0 l 1
 560.139648438 0 l 1
 443.400390625 252.58984375 l 1
 154 252.58984375 l 1
 154 0 l 1
 40 0 l 1
 40 800 l 1
 411.860351562 800 l 2
 563.030273438 800 685.5703125 677.459960938 685.5703125 526.290039062 c 1
571.5703125 526.290039062 m 0
 571.5703125 614.450195312 500.01953125 686 411.860351562 686 c 1
 154 686 l 1
 154 366.58984375 l 1
 411.860351562 366.58984375 l 2
 500.014648438 366.58984375 571.564453125 438.135742188 571.5703125 526.290039062 c 0
EndSplineSet
Validated: 5
EndChar

StartChar: U
Encoding: 85 85 76
Width: 735
VWidth: 0
Flags: W
HStem: -5 114<276.392 458.608> 780 20G<40 154 581 695>
VStem: 40 114<232.844 800> 581 114<232.844 800>
LayerCount: 2
Fore
SplineSet
581 800 m 1
 695 800 l 1
 695 322.5 l 2
 695 141.629882812 548.370117188 -5 367.5 -5 c 1
 186.629882812 -5 40 141.629882812 40 322.5 c 2
 40 800 l 1
 154 800 l 1
 154 322.5 l 2
 154 204.58984375 249.58984375 109 367.5 109 c 1
 485.41015625 109 581 204.58984375 581 322.5 c 2
 581 800 l 1
EndSplineSet
Validated: 5
EndChar

StartChar: V
Encoding: 86 86 77
Width: 914
VWidth: 0
Flags: W
HStem: 0 21G<386.095 528.584> 780 20G<40 173.594 741.086 874.68>
LayerCount: 2
Fore
SplineSet
749.959960938 800 m 1
 874.6796875 800 l 1
 519.709960938 0 l 1
 394.969726562 0 l 1
 40 800 l 1
 164.719726562 800 l 1
 457.33984375 140.530273438 l 1
 749.959960938 800 l 1
EndSplineSet
Validated: 1
EndChar

StartChar: W
Encoding: 87 87 78
Width: 1080
VWidth: 0
Flags: W
HStem: 0 21G<243.765 378.74 701.26 836.235> 580 20G<470.09 609.91> 780 20G<40 163.055 916.945 1040>
LayerCount: 2
Fore
SplineSet
922.169921875 800 m 1
 1040 800 l 1
 831.009765625 0 l 1
 830.879882812 0 l 1
 713.1796875 0 l 1
 708.879882812 0 l 1
 540 443.280273438 l 1
 371.120117188 0 l 1
 366.8203125 0 l 1
 249.120117188 0 l 1
 248.990234375 0 l 1
 40 800 l 1
 157.830078125 800 l 1
 318.940429688 183.259765625 l 1
 477.709960938 600 l 1
 480.290039062 600 l 1
 599.709960938 600 l 1
 602.290039062 600 l 1
 761.059570312 183.259765625 l 1
 922.169921875 800 l 1
EndSplineSet
Validated: 1
EndChar

StartChar: X
Encoding: 88 88 79
Width: 848
VWidth: 0
Flags: W
HStem: 0 21G<40 197.851 650.769 808.619> 780 20G<40 197.851 650.769 808.619>
LayerCount: 2
Fore
SplineSet
808.619140625 800 m 1
 495.409179688 400 l 1
 808.619140625 0 l 1
 666.4296875 0 l 1
 424.309570312 309.200195312 l 1
 182.189453125 0 l 1
 40 0 l 1
 353.209960938 400 l 1
 40 800 l 1
 182.189453125 800 l 1
 424.309570312 490.799804688 l 1
 666.4296875 800 l 1
 808.619140625 800 l 1
EndSplineSet
Validated: 1
EndChar

StartChar: exclam
Encoding: 33 33 80
Width: 200
VWidth: 0
Flags: HW
LayerCount: 2
Fore
SplineSet
43 200 m 1
 43 800 l 1
 157 800 l 1
 157 200 l 1
 43 200 l 1
40 60 m 0
 40 93.13671875 66.86328125 120 100 120 c 0
 133.13671875 120 160 93.13671875 160 60 c 0
 160 26.86328125 133.13671875 0 100 0 c 0
 66.86328125 0 40 26.86328125 40 60 c 0
EndSplineSet
Validated: 1
EndChar

StartChar: numbersign
Encoding: 35 35 81
Width: 651
VWidth: 0
Flags: HW
LayerCount: 2
Fore
SplineSet
611.51953125 360 m 1
 475.759765625 360 l 1
 475.759765625 240 l 1
 611.51953125 240 l 1
 611.51953125 150 l 1
 475.759765625 150 l 1
 475.759765625 0 l 1
 385.759765625 0 l 1
 385.759765625 150 l 1
 265.759765625 150 l 1
 265.759765625 0 l 1
 175.759765625 0 l 1
 175.759765625 150 l 1
 40 150 l 1
 40 240 l 1
 175.759765625 240 l 1
 175.759765625 360 l 1
 40 360 l 1
 40 450 l 1
 175.759765625 450 l 1
 175.759765625 600 l 1
 265.759765625 600 l 1
 265.759765625 450 l 1
 385.759765625 450 l 1
 385.759765625 600 l 1
 475.759765625 600 l 1
 475.759765625 450 l 1
 611.51953125 450 l 1
 611.51953125 360 l 1
385.759765625 240 m 1
 385.759765625 360 l 1
 265.759765625 360 l 1
 265.759765625 240 l 1
 385.759765625 240 l 1
EndSplineSet
Validated: 1
EndChar

StartChar: dollar
Encoding: 36 36 82
Width: 594
VWidth: 0
Flags: HW
LayerCount: 2
Fore
SplineSet
161.125976562 529.490234375 m 1
 154.435546875 410.709960938 567.49609375 506 553.916015625 264.349609375 c 1
 553.916015625 264.349609375 533.795898438 112.919921875 342.125976562 96.2001953125 c 1
 342.125976562 0.2001953125 l 2
 342.125976562 0.08984375 342.036132812 0 341.92578125 0 c 1
 341.92578125 0 341.92578125 0 341.92578125 0 c 1
 252.326171875 0 l 2
 252.215820312 0 252.125976562 0.08984375 252.125976562 0.2001953125 c 2
 252.125976562 97.7998046875 l 1
 31.6162109375 122.190429688 46.265625 275.879882812 46.265625 275.879882812 c 1
 147.446289062 286.5703125 l 1
 147.446289062 286.5703125 152.515625 202.8203125 285.616210938 195.33984375 c 0
 418.715820312 187.860351562 433.125976562 270.509765625 433.125976562 270.509765625 c 1
 439.776367188 388.66015625 26.7861328125 294.690429688 40.326171875 535.620117188 c 1
 40.326171875 535.620117188 60.4560546875 687 252.125976562 703.799804688 c 1
 252.125976562 799.799804688 l 2
 252.125976562 799.91015625 252.215820312 800 252.326171875 800 c 2
 341.92578125 800 l 2
 342.036132812 800 342.125976562 799.91015625 342.125976562 799.799804688 c 2
 342.125976562 702.200195312 l 1
 562.635742188 677.809570312 548.005859375 524.120117188 548.005859375 524.120117188 c 1
 446.81640625 513.4296875 l 1
 446.81640625 513.4296875 441.74609375 597.1796875 308.645507812 604.66015625 c 0
 175.545898438 612.139648438 161.125976562 529.490234375 161.125976562 529.490234375 c 1
EndSplineSet
EndChar

StartChar: percent
Encoding: 37 37 83
Width: 759
VWidth: 0
Flags: HW
LayerCount: 2
Fore
SplineSet
561.919921875 344 m 1
 648.5 344 719.849609375 273.129882812 719.83984375 186.58984375 c 2
 719.83984375 163.389648438 l 2
 719.83984375 76.8203125 648.490234375 5.98046875 561.919921875 5.98046875 c 1
 561.919921875 5.98046875 l 1
 475.33984375 5.98046875 403.990234375 76.8203125 403.990234375 163.389648438 c 2
 403.990234375 186.58984375 l 2
 403.990234375 273.16015625 475.33984375 344 561.919921875 344 c 1
 561.919921875 344 l 1
622.58984375 167.889648438 m 2
 622.58984375 182.059570312 l 2
 622.491210938 215.451171875 595.311523438 242.631835938 561.919921875 242.73046875 c 1
 561.919921875 242.73046875 l 1
 528.5234375 242.63671875 501.338867188 215.45703125 501.240234375 182.059570312 c 2
 501.240234375 167.860351562 l 2
 501.338867188 134.462890625 528.5234375 107.283203125 561.919921875 107.190429688 c 1
 561.919921875 107.190429688 l 1
 595.327148438 107.2890625 622.5078125 134.482421875 622.58984375 167.889648438 c 2
197.919921875 740.950195312 m 1
 284.490234375 740.950195312 355.83984375 670.120117188 355.849609375 583.540039062 c 2
 355.849609375 560.349609375 l 2
 355.849609375 473.76953125 284.5 402.940429688 197.919921875 402.940429688 c 1
 197.919921875 402.940429688 l 1
 111.349609375 402.940429688 40 473.76953125 40 560.349609375 c 2
 40 583.540039062 l 2
 40 670.120117188 111.349609375 740.950195312 197.919921875 740.950195312 c 1
 197.919921875 740.950195312 l 1
258.599609375 564.849609375 m 2
 258.58984375 579 l 2
 258.513671875 612.413085938 231.333007812 639.616210938 197.919921875 639.719726562 c 1
 197.919921875 639.719726562 l 1
 164.500976562 639.62109375 137.321289062 612.418945312 137.25 579 c 2
 137.25 564.849609375 l 2
 137.342773438 531.453125 164.5234375 504.268554688 197.919921875 504.169921875 c 1
 197.919921875 504.169921875 l 1
 231.31640625 504.268554688 258.500976562 531.453125 258.599609375 564.849609375 c 2
143.08984375 0 m 1
 516.150390625 746.900390625 l 1
 616.759765625 746.900390625 l 1
 243.689453125 0 l 1
 143.08984375 0 l 1
EndSplineSet
Validated: 37
EndChar

StartChar: parenleft
Encoding: 40 40 84
Width: 334
VWidth: 0
Flags: HW
LayerCount: 2
Fore
SplineSet
154 281.76953125 m 2
 154 65.51953125 294.419921875 0.9296875 294.419921875 0.9296875 c 1
 277.150390625 -94 l 1
 145.8203125 -80.419921875 40.509765625 79.2197265625 40 272.73046875 c 1
 40 272.73046875 l 1
 40 431.879882812 l 2
 40 626 145.509765625 786.389648438 277.150390625 800 c 1
 294.419921875 705.0703125 l 1
 294.419921875 705.0703125 154 640.48046875 154 424.23046875 c 2
 154 281.76953125 l 2
EndSplineSet
EndChar

StartChar: parenright
Encoding: 41 41 85
Width: 334
VWidth: 0
Flags: HW
LayerCount: 2
Fore
SplineSet
180.419921875 424.23046875 m 2
 180.419921875 640.48046875 40 705.0703125 40 705.0703125 c 1
 57.26953125 800 l 1
 188.599609375 786.419921875 293.91015625 626.780273438 294.419921875 433.26953125 c 1
 294.419921875 433.26953125 l 1
 294.419921875 274.120117188 l 2
 294.419921875 80 188.91015625 -80.3896484375 57.26953125 -94 c 1
 40 0.9296875 l 1
 40 0.9296875 180.419921875 65.51953125 180.419921875 281.76953125 c 2
 180.419921875 424.23046875 l 2
EndSplineSet
EndChar

StartChar: copyright
Encoding: 169 169 86
Width: 837
VWidth: 0
Flags: HW
LayerCount: 2
Fore
SplineSet
418.599609375 705.169921875 m 0
 626.149414062 705.169921875 797.19921875 535.349609375 797.19921875 327.799804688 c 2
 797.19921875 272.200195312 l 2
 797.19921875 64.650390625 626.19921875 -105.169921875 418.599609375 -105.169921875 c 0
 211 -105.169921875 40 64.650390625 40 272.200195312 c 2
 40 327.799804688 l 2
 40 535.349609375 211.049804688 705.169921875 418.599609375 705.169921875 c 0
713.790039062 266 m 2
 713.790039062 334 l 2
 713.790039062 494 580.959960938 624.830078125 418.599609375 624.830078125 c 0
 256.239257812 624.830078125 123.409179688 494 123.409179688 334 c 2
 123.409179688 266 l 2
 123.409179688 106 256.239257812 -24.8203125 418.599609375 -24.8203125 c 0
 580.959960938 -24.8203125 713.790039062 106 713.790039062 266 c 2
533.859375 214.51953125 m 1
 596.729492188 151.650390625 l 1
 560.44140625 104.448242188 482.66796875 66.0771484375 423.129882812 66 c 1
 423.129882812 66 l 1
 303.259765625 66 204.469726562 164.0703125 204.469726562 283.940429688 c 2
 204.469726562 316.059570312 l 2
 204.469726562 435.9296875 303.259765625 534 423.129882812 534 c 1
 423.129882812 534 l 1
 482.66796875 533.922851562 560.44140625 495.551757812 596.729492188 448.349609375 c 1
 533.859375 385.48046875 l 1
 512.546875 419.10546875 462.940429688 446.459960938 423.129882812 446.540039062 c 0
 350.939453125 446.540039062 291.939453125 387.5 291.939453125 315.33984375 c 2
 291.939453125 284.66015625 l 2
 291.939453125 212.459960938 350.969726562 153.459960938 423.129882812 153.459960938 c 0
 462.940429688 153.540039062 512.546875 180.89453125 533.859375 214.51953125 c 1
EndSplineSet
Validated: 5
EndChar

StartChar: registered
Encoding: 174 174 87
Width: 837
VWidth: 0
Flags: HW
LayerCount: 2
Fore
SplineSet
418.599609375 705.169921875 m 0
 626.149414062 705.169921875 797.19921875 535.349609375 797.19921875 327.799804688 c 2
 797.19921875 272.200195312 l 2
 797.19921875 64.650390625 626.19921875 -105.169921875 418.599609375 -105.169921875 c 0
 211 -105.169921875 40 64.650390625 40 272.200195312 c 2
 40 327.799804688 l 2
 40 535.349609375 211.049804688 705.169921875 418.599609375 705.169921875 c 0
713.790039062 266 m 2
 713.790039062 334 l 2
 713.790039062 494 580.959960938 624.830078125 418.599609375 624.830078125 c 0
 256.239257812 624.830078125 123.409179688 494 123.409179688 334 c 2
 123.409179688 266 l 2
 123.409179688 106 256.239257812 -24.8203125 418.599609375 -24.8203125 c 0
 580.959960938 -24.8203125 713.790039062 106 713.790039062 266 c 2
601.909179688 80.259765625 m 1
 483.94921875 80.259765625 l 1
 354.69921875 209.509765625 l 1
 354.69921875 80.259765625 l 1
 271.290039062 80.259765625 l 1
 271.290039062 519.740234375 l 1
 443.4296875 519.740234375 l 2
 529.044921875 519.740234375 598.529296875 450.254882812 598.529296875 364.639648438 c 1
 598.529296875 364.639648438 l 1
 598.520507812 292.772460938 541.068359375 224.331054688 470.290039062 211.870117188 c 1
 601.909179688 80.259765625 l 1
443.4296875 436.330078125 m 2
 354.69921875 436.330078125 l 1
 354.69921875 292.950195312 l 1
 443.4296875 292.950195312 l 2
 483.002929688 292.950195312 515.119140625 325.067382812 515.119140625 364.639648438 c 1
 515.119140625 364.639648438 l 1
 515.119140625 364.642578125 515.119140625 364.647460938 515.119140625 364.650390625 c 0
 515.119140625 404.217773438 483.006835938 436.330078125 443.439453125 436.330078125 c 0
 443.436523438 436.330078125 443.432617188 436.330078125 443.4296875 436.330078125 c 2
EndSplineSet
Validated: 5
EndChar

StartChar: multiply
Encoding: 170 215 88
Width: 445
VWidth: 0
Flags: HW
LayerCount: 2
Fore
SplineSet
40 419.309570312 m 1
 103.640625 482.950195312 l 1
 222.950195312 363.639648438 l 1
 342.259765625 482.950195312 l 1
 405.900390625 419.309570312 l 1
 286.58984375 300 l 1
 405.900390625 180.690429688 l 1
 342.259765625 117.049804688 l 1
 222.950195312 236.360351562 l 1
 103.640625 117.049804688 l 1
 40 180.690429688 l 1
 159.310546875 300 l 1
 40 419.309570312 l 1
EndSplineSet
Validated: 1
EndChar

StartChar: period
Encoding: 46 46 89
Width: 200
VWidth: 0
Flags: HW
LayerCount: 2
Fore
SplineSet
40 60 m 0
 40 93.13671875 66.86328125 120 100 120 c 0
 133.13671875 120 160 93.13671875 160 60 c 0
 160 26.86328125 133.13671875 0 100 0 c 0
 66.86328125 0 40 26.86328125 40 60 c 0
EndSplineSet
Validated: 1
EndChar

StartChar: comma
Encoding: 44 44 90
Width: 230
VWidth: 0
Flags: HW
LayerCount: 2
Fore
SplineSet
108.360351562 -59.2998046875 m 1
 40 -6.6298828125 l 1
 59.1904296875 28.650390625 89.5908203125 112.330078125 99.3505859375 160.280273438 c 1
 190.8203125 137.009765625 l 1
 163.360351562 28.919921875 130.650390625 -29.48046875 108.360351562 -59.2998046875 c 1
EndSplineSet
Validated: 1
EndChar

StartChar: at
Encoding: 64 64 91
Width: 837
VWidth: 0
Flags: HW
LayerCount: 2
Fore
SplineSet
418.599609375 705.169921875 m 0
 626.149414062 705.169921875 797.19921875 535.349609375 797.19921875 327.799804688 c 2
 797.19921875 189.700195312 l 2
 797.19921875 121.41796875 741.782226562 66 673.5 66 c 1
 673.5 66 673.5 66 673.5 66 c 1
 673.5 66 l 1
 673.484375 66 673.458984375 66 673.443359375 66 c 0
 635.135742188 66 587.852539062 92.5390625 567.899414062 125.240234375 c 1
 533.165039062 92.5771484375 466.279296875 66.037109375 418.599609375 66 c 0
 298.729492188 66 199.939453125 164.0703125 199.939453125 283.940429688 c 2
 199.939453125 316.059570312 l 2
 199.939453125 435.9296875 298.729492188 534 418.599609375 534 c 0
 538.469726562 534 637.259765625 435.9296875 637.259765625 316.059570312 c 2
 637.259765625 191.73046875 l 2
 637.259765625 170.610351562 654.400390625 153.465820312 675.51953125 153.459960938 c 1
 675.51953125 153.459960938 l 1
 696.64453125 153.459960938 713.790039062 170.604492188 713.790039062 191.73046875 c 2
 713.790039062 334 l 2
 713.790039062 494 580.959960938 624.8203125 418.599609375 624.8203125 c 0
 256.239257812 624.8203125 123.409179688 494 123.409179688 334 c 2
 123.409179688 266 l 2
 123.409179688 106 256.239257812 -24.830078125 418.599609375 -24.8798828125 c 0
 418.671875 -24.8798828125 418.788085938 -24.8798828125 418.860351562 -24.8798828125 c 0
 459.193359375 -24.8798828125 520.900390625 -9.6484375 556.599609375 9.1201171875 c 1
 582.75 -67.4697265625 l 1
 539.890625 -88.2802734375 466.439453125 -105.169921875 418.795898438 -105.169921875 c 0
 418.741210938 -105.169921875 418.653320312 -105.169921875 418.599609375 -105.169921875 c 0
 211 -105.169921875 40 64.650390625 40 272.200195312 c 2
 40 327.799804688 l 2
 40 535.349609375 211.049804688 705.169921875 418.599609375 705.169921875 c 0
418.599609375 153.459960938 m 0
 490.759765625 153.459960938 549.790039062 212.5 549.790039062 284.66015625 c 2
 549.790039062 315.33984375 l 2
 549.790039062 387.540039062 490.790039062 446.540039062 418.599609375 446.540039062 c 0
 346.409179688 446.540039062 287.409179688 387.5 287.409179688 315.33984375 c 2
 287.409179688 284.66015625 l 2
 287.409179688 212.459960938 346.439453125 153.459960938 418.599609375 153.459960938 c 0
EndSplineSet
Validated: 5
EndChar

StartChar: semicolon
Encoding: 59 59 92
Width: 230
VWidth: 0
Flags: HW
LayerCount: 2
Fore
SplineSet
70.2099609375 422.990234375 m 0
 70.2099609375 456.126953125 97.0732421875 482.990234375 130.209960938 482.990234375 c 0
 163.346679688 482.990234375 190.209960938 456.126953125 190.209960938 422.990234375 c 0
 190.209960938 389.852539062 163.346679688 362.990234375 130.209960938 362.990234375 c 0
 97.0732421875 362.990234375 70.2099609375 389.852539062 70.2099609375 422.990234375 c 0
108.360351562 -59.2998046875 m 1
 40 -6.6298828125 l 1
 59.1904296875 28.650390625 89.58984375 112.330078125 99.349609375 160.280273438 c 1
 190.8203125 137.009765625 l 1
 163.360351562 28.919921875 130.650390625 -29.48046875 108.360351562 -59.2998046875 c 1
EndSplineSet
Validated: 1
EndChar

StartChar: braceleft
Encoding: 123 123 93
Width: 339
VWidth: 0
Flags: HW
LayerCount: 2
Fore
SplineSet
195 116.759765625 m 2
 195 71.6396484375 252.200195312 6 299.240234375 -3 c 1
 283 -94 l 1
 171.620117188 -94 81 39.4599609375 81 150.83984375 c 2
 81 283.190429688 l 2
 81 295.790039062 70.7900390625 308 58.1904296875 308 c 2
 40 308 l 1
 40 398 l 1
 58.1904296875 398 l 2
 70.7900390625 398 81 410.209960938 81 422.809570312 c 2
 81 555.16015625 l 2
 81 666.540039062 171.620117188 800 283 800 c 1
 299.240234375 708.969726562 l 1
 252.200195312 699.98046875 195 634.360351562 195 589.240234375 c 2
 195 458 l 2
 195 394.669921875 145.3203125 353 145.3203125 353 c 1
 145.3203125 353 l 1
 145.3203125 353 195 311.330078125 195 248 c 2
 195 116.759765625 l 2
EndSplineSet
EndChar

StartChar: braceright
Encoding: 125 125 94
Width: 339
VWidth: 0
Flags: HW
LayerCount: 2
Fore
SplineSet
144.240234375 589.240234375 m 2
 144.240234375 634.360351562 87.0400390625 700 40 709 c 1
 56.240234375 800 l 1
 167.620117188 800 258.240234375 666.540039062 258.240234375 555.16015625 c 2
 258.240234375 422.809570312 l 2
 258.240234375 410.209960938 268.450195312 398 281.049804688 398 c 2
 299.240234375 398 l 1
 299.240234375 308 l 1
 281.049804688 308 l 2
 268.450195312 308 258.240234375 295.790039062 258.240234375 283.190429688 c 2
 258.240234375 150.870117188 l 2
 258.240234375 39.490234375 167.620117188 -93.9697265625 56.240234375 -93.9697265625 c 1
 40 -2.9697265625 l 1
 87.0400390625 6.01953125 144.240234375 71.6396484375 144.240234375 116.759765625 c 2
 144.240234375 248 l 2
 144.240234375 311.330078125 193.919921875 353 193.919921875 353 c 1
 193.919921875 353 l 1
 193.919921875 353 144.240234375 394.669921875 144.240234375 458 c 2
 144.240234375 589.240234375 l 2
EndSplineSet
EndChar

StartChar: equal
Encoding: 61 61 95
Width: 507
VWidth: 0
Flags: HW
LayerCount: 2
Fore
SplineSet
40 165 m 1
 40 255 l 1
 467.470703125 255 l 1
 467.470703125 165 l 1
 40 165 l 1
40 345 m 1
 40 435 l 1
 467.470703125 435 l 1
 467.470703125 345 l 1
 40 345 l 1
EndSplineSet
Validated: 1
EndChar

StartChar: bracketleft
Encoding: 91 91 96
Width: 349
VWidth: 0
Flags: HW
LayerCount: 2
Fore
SplineSet
309.740234375 -94 m 1
 40 -94 l 1
 40 800 l 1
 309.740234375 800 l 1
 309.740234375 710 l 1
 154 710 l 1
 154 -4 l 1
 309.740234375 -4 l 1
 309.740234375 -94 l 1
EndSplineSet
EndChar

StartChar: bracketright
Encoding: 93 93 97
Width: 349
VWidth: 0
Flags: HW
LayerCount: 2
Fore
SplineSet
40 800 m 1
 309.740234375 800 l 1
 309.740234375 -94 l 1
 40 -94 l 1
 40 -4 l 1
 195.740234375 -4 l 1
 195.740234375 710 l 1
 40 710 l 1
 40 800 l 1
EndSplineSet
EndChar

StartChar: divide
Encoding: 186 247 98
Width: 507
VWidth: 0
Flags: HW
LayerCount: 2
Fore
SplineSet
193.73046875 146.26953125 m 0
 193.73046875 179.407226562 220.59375 206.26953125 253.73046875 206.26953125 c 0
 286.8671875 206.26953125 313.73046875 179.407226562 313.73046875 146.26953125 c 0
 313.73046875 113.1328125 286.8671875 86.26953125 253.73046875 86.26953125 c 0
 220.59375 86.26953125 193.73046875 113.1328125 193.73046875 146.26953125 c 0
193.73046875 453.73046875 m 0
 193.73046875 486.8671875 220.59375 513.73046875 253.73046875 513.73046875 c 0
 286.8671875 513.73046875 313.73046875 486.8671875 313.73046875 453.73046875 c 0
 313.73046875 420.592773438 286.8671875 393.73046875 253.73046875 393.73046875 c 0
 220.59375 393.73046875 193.73046875 420.592773438 193.73046875 453.73046875 c 0
40 255 m 1
 40 345 l 1
 467.470703125 345 l 1
 467.470703125 255 l 1
 40 255 l 1
EndSplineSet
Validated: 1
EndChar

StartChar: sterling
Encoding: 163 163 99
Width: 561
VWidth: 0
Flags: HW
LayerCount: 2
Fore
SplineSet
521.870117188 445 m 1
 259.58984375 445 l 1
 259.58984375 355 l 1
 521.870117188 355 l 1
 521.870117188 265 l 1
 260.779296875 265 l 1
 270.76953125 180.26953125 343.309570312 114 430.58984375 114 c 2
 521.870117188 114 l 1
 521.870117188 0 l 1
 430.58984375 0 l 2
 280.76953125 0 156.259765625 117.5703125 146.259765625 265 c 1
 40 265 l 1
 40 355 l 1
 145.58984375 355 l 1
 145.58984375 445 l 1
 40 445 l 1
 40 535 l 1
 146.259765625 535 l 1
 156.1796875 682.4296875 280.759765625 800 430.58984375 800 c 2
 521.870117188 800 l 1
 521.870117188 686 l 1
 430.58984375 686 l 2
 343.309570312 686 270.779296875 619.719726562 260.779296875 535 c 1
 521.870117188 535 l 1
 521.870117188 445 l 1
EndSplineSet
Validated: 1
EndChar

StartChar: cent
Encoding: 162 162 100
Width: 591
VWidth: 0
Flags: HW
LayerCount: 2
Fore
SplineSet
325 209 m 0
 385.490234375 209 438.91015625 240.83984375 469.3203125 288.580078125 c 1
 551.26953125 206.639648438 l 1
 513.057617188 156.990234375 431.848632812 108.580078125 370 98.580078125 c 1
 370 0 l 1
 280 0 l 1
 280 98.599609375 l 1
 144.790039062 120.3203125 40 238.129882812 40 379.0703125 c 2
 40 420.9296875 l 2
 40 561.870117188 144.790039062 679.6796875 280 701.400390625 c 1
 280 800 l 1
 370 800 l 1
 370 701.419921875 l 1
 431.850585938 691.423828125 513.059570312 643.012695312 551.26953125 593.360351562 c 1
 469.3203125 511.419921875 l 1
 438.91015625 559.16015625 385.490234375 591 325 591 c 0
 231 591 154 514 154 420 c 2
 154 380 l 2
 154 286 230.950195312 209 325 209 c 0
EndSplineSet
Validated: 1
EndChar

StartChar: yen
Encoding: 165 165 101
Width: 674
VWidth: 0
Flags: HW
LayerCount: 2
Fore
SplineSet
634.30078125 800 m 1
 434.040039062 354.990234375 l 1
 550.880859375 354.990234375 l 1
 550.880859375 264.990234375 l 1
 394.150390625 264.990234375 l 1
 394.150390625 0 l 1
 280.150390625 0 l 1
 280.150390625 264.990234375 l 1
 123.419921875 264.990234375 l 1
 123.419921875 354.990234375 l 1
 240.260742188 354.990234375 l 1
 40 800 l 1
 165.020507812 800 l 1
 337.150390625 417.48046875 l 1
 509.280273438 800 l 1
 634.30078125 800 l 1
EndSplineSet
Validated: 1
EndChar

StartChar: zero
Encoding: 48 48 102
Width: 650
VWidth: 0
Flags: HW
LayerCount: 2
Fore
SplineSet
325 698 m 0
 446.580078125 698 545.5 599.290039062 545.5 478 c 2
 545.5 279.540039062 l 2
 545.5 158.25 446.580078125 59.5400390625 325 59.5400390625 c 0
 203.419921875 59.5400390625 104.5 158.209960938 104.5 279.540039062 c 2
 104.5 478 l 2
 104.5 599.290039062 203.419921875 698 325 698 c 0
496 280 m 2
 496 477.5 l 2
 496 571.549804688 419.049804688 648.5 325 648.5 c 0
 230.950195312 648.5 154 571.549804688 154 477.5 c 2
 154 280 l 2
 154 186 231 109 325 109 c 0
 419 109 496 186 496 280 c 2
325 762.5 m 0
 481.240234375 762.5 610 634.669921875 610 478.4296875 c 2
 610 279.0703125 l 2
 610 122.830078125 481.240234375 -5 325 -5 c 0
 168.759765625 -5 40 122.830078125 40 279.0703125 c 2
 40 478.4296875 l 2
 40 634.669921875 168.759765625 762.5 325 762.5 c 0
560.5 279.5 m 2
 560.5 478 l 2
 560.5 540.5 535.849609375 599.509765625 491.219726562 644 c 0
 446.58984375 688.490234375 387.549804688 713 325 713 c 0
 262.450195312 713 203.459960938 688.540039062 158.780273438 644 c 0
 114.099609375 599.459960938 89.5 540.5 89.5 478 c 2
 89.5 279.540039062 l 2
 89.5 217 114.150390625 157.990234375 158.780273438 113.5 c 0
 203.41015625 69.009765625 262.450195312 44.5 325 44.5 c 0
 387.549804688 44.5 446.540039062 68.9697265625 491.219726562 113.5 c 0
 535.900390625 158.030273438 560.5 216.990234375 560.5 279.5 c 2
EndSplineSet
EndChar

StartChar: one
Encoding: 49 49 103
Width: 293
VWidth: 0
Flags: HW
LayerCount: 2
Fore
SplineSet
188.6796875 0 m 1
 139.1796875 0 l 1
 139.1796875 632.900390625 l 1
 40 632.900390625 l 1
 40 682.400390625 l 1
 188.6796875 682.400390625 l 1
 188.6796875 0 l 1
40 746.900390625 m 1
 253.1796875 746.900390625 l 1
 253.1796875 0 l 1
 203.6796875 0 l 1
 203.6796875 697.400390625 l 1
 40 697.400390625 l 1
 40 746.900390625 l 1
EndSplineSet
EndChar

StartChar: two
Encoding: 50 50 104
Width: 605
VWidth: 0
Flags: HW
LayerCount: 2
Fore
SplineSet
302.5 713.41015625 m 0
 185.049804688 713.41015625 89.5 617.860351562 89.5 500.41015625 c 1
 40 500.41015625 l 1
 40 645.389648438 157.530273438 762.91015625 302.5 762.91015625 c 0
 447.469726562 762.91015625 565 645.41015625 565 500.41015625 c 0
 565 338.540039062 413.009765625 203 276.690429688 114 c 1
 565 114 l 1
 565 64.5400390625 l 1
 133 64.5400390625 l 1
 133 80.5400390625 l 1
 227.719726562 135.809570312 515.5 318.860351562 515.5 500.41015625 c 0
 515.5 617.860351562 419.950195312 713.41015625 302.5 713.41015625 c 0
118 49.5 m 1
 565 49.5 l 1
 565 0 l 1
 65.33984375 0 l 1
 65.33984375 114 l 1
 65.33984375 114 451 328.83984375 451 500.41015625 c 0
 451 582.381835938 384.471679688 648.91015625 302.5 648.91015625 c 0
 220.528320312 648.91015625 154 582.381835938 154 500.41015625 c 1
 104.5 500.41015625 l 1
 104.5 609.58984375 193.3203125 698.41015625 302.5 698.41015625 c 0
 411.6796875 698.41015625 500.5 609.58984375 500.5 500.41015625 c 0
 500.5 429.349609375 452.83984375 349.299804688 358.83984375 262.490234375 c 0
 273.379882812 183.580078125 173.610351562 121.33984375 121.740234375 91.33984375 c 2
 118 89.169921875 l 1
 118 49.5 l 1
EndSplineSet
EndChar

StartChar: three
Encoding: 51 51 105
Width: 576
VWidth: 0
Flags: HW
LayerCount: 2
Fore
SplineSet
392.759765625 494.48046875 m 1
 478.209960938 451.200195312 536.819335938 362.540039062 536.819335938 260.169921875 c 0
 536.819335938 115.190429688 419.319335938 -2.330078125 274.319335938 -2.330078125 c 0
 184.559570312 -2.330078125 87.33984375 42.7197265625 40 111.440429688 c 1
 71.8798828125 143.040039062 l 1
 96.919921875 108.040039062 184.4296875 47.169921875 274.319335938 47.169921875 c 0
 391.759765625 47.169921875 487.319335938 142.719726562 487.319335938 260.169921875 c 0
 487.3203125 260.379882812 487.321289062 260.719726562 487.321289062 260.9296875 c 0
 487.321289062 347.458007812 419.560546875 436.125976562 336.069335938 458.849609375 c 2
 318.200195312 463.400390625 l 1
 438.26953125 697.400390625 l 1
 65.759765625 697.400390625 l 1
 65.759765625 746.900390625 l 1
 522.229492188 746.900390625 l 1
 392.759765625 494.48046875 l 1
274.319335938 111.669921875 m 1
 274.279296875 111.650390625 l 2
 274.474609375 111.649414062 274.790039062 111.6484375 274.984375 111.6484375 c 0
 356.958007812 111.6484375 423.486328125 178.176757812 423.486328125 260.150390625 c 0
 423.486328125 341.734375 357.2734375 408.262695312 275.689453125 408.650390625 c 2
 214.689453125 408.650390625 l 1
 329.759765625 632.900390625 l 1
 65.759765625 632.900390625 l 1
 65.759765625 682.400390625 l 1
 413.759765625 682.400390625 l 1
 296.319335938 453.490234375 l 1
 332.319335938 444.309570312 l 2
 414.740234375 422.549804688 472.319335938 346.830078125 472.319335938 260.169921875 c 0
 472.319335938 150.990234375 383.490234375 62.169921875 274.319335938 62.169921875 c 0
 189.9296875 62.169921875 105.209960938 121.0703125 83.4599609375 152.639648438 c 2
 82.689453125 153.75 l 1
 114.549804688 185.330078125 l 1
 114.549804688 185.330078125 191.219726562 111.669921875 274.319335938 111.669921875 c 1
EndSplineSet
EndChar

StartChar: four
Encoding: 52 52 106
Width: 688
VWidth: 0
Flags: HW
LayerCount: 2
Fore
SplineSet
505.280273438 0 m 1
 455.770507812 0 l 1
 455.770507812 132.0703125 l 1
 40 132.0703125 l 1
 455.770507812 746.900390625 l 1
 569.770507812 746.900390625 l 1
 569.770507812 246.0703125 l 1
 648.48046875 246.0703125 l 1
 648.48046875 196.5703125 l 1
 520.299804688 196.5703125 l 1
 520.360351562 697.5 l 1
 475.850585938 697.5 l 1
 128.41015625 181.5703125 l 1
 505.299804688 181.5703125 l 1
 505.280273438 0 l 1
156.600585938 196.5703125 m 1
 483.830078125 682.5 l 1
 505.360351562 682.5 l 1
 505.299804688 196.5703125 l 1
 156.600585938 196.5703125 l 1
455.770507812 246.0703125 m 1
 455.770507812 561.599609375 l 1
 245.009765625 246.0703125 l 1
 455.770507812 246.0703125 l 1
520.299804688 181.5703125 m 1
 648.48046875 181.5703125 l 1
 648.48046875 132.0703125 l 1
 569.770507812 132.0703125 l 1
 569.770507812 0 l 1
 520.280273438 0 l 1
 520.299804688 181.5703125 l 1
EndSplineSet
EndChar

StartChar: five
Encoding: 53 53 107
Width: 576
VWidth: 0
Flags: HW
LayerCount: 2
Fore
SplineSet
274.309570312 522.669921875 m 0
 419.290039062 522.669921875 536.809570312 405.150390625 536.809570312 260.169921875 c 0
 536.809570312 115.190429688 419.309570312 -2.330078125 274.309570312 -2.330078125 c 0
 184.549804688 -2.330078125 87.33984375 42.7197265625 40 111.440429688 c 1
 71.8798828125 143.040039062 l 1
 96.919921875 108.040039062 184.419921875 47.169921875 274.309570312 47.169921875 c 0
 391.759765625 47.169921875 487.309570312 142.73046875 487.309570312 260.169921875 c 0
 487.309570312 377.610351562 391.759765625 473.169921875 274.309570312 473.169921875 c 0
 250.330078125 473.169921875 203.709960938 468.200195312 157.91015625 458.6796875 c 1
 157.91015625 682.400390625 l 1
 506.030273438 682.400390625 l 1
 506.030273438 632.900390625 l 1
 207.41015625 632.900390625 l 1
 207.41015625 514.040039062 l 1
 225.530273438 518.803710938 255.442382812 522.669921875 274.177734375 522.669921875 c 0
 274.21484375 522.669921875 274.2734375 522.669921875 274.309570312 522.669921875 c 0
422.809570312 260.169921875 m 0
 422.8046875 342.13671875 356.276367188 408.6640625 274.309570312 408.669921875 c 0
 244.490234375 408.669921875 165.41015625 399.870117188 93.41015625 384.740234375 c 1
 93.41015625 746.900390625 l 1
 506.030273438 746.900390625 l 1
 506.030273438 697.400390625 l 1
 142.91015625 697.400390625 l 1
 142.91015625 440.0703125 l 1
 152.040039062 442.0703125 l 2
 199.599609375 452.639648438 249.549804688 458.169921875 274.309570312 458.169921875 c 0
 383.490234375 458.169921875 472.309570312 369.349609375 472.309570312 260.169921875 c 0
 472.309570312 150.990234375 383.490234375 62.169921875 274.309570312 62.169921875 c 0
 189.919921875 62.169921875 105.200195312 121.0703125 83.4501953125 152.639648438 c 2
 82.689453125 153.75 l 1
 114.549804688 185.330078125 l 1
 114.549804688 185.330078125 191.219726562 111.669921875 274.309570312 111.669921875 c 0
 356.282226562 111.669921875 422.809570312 178.198242188 422.809570312 260.169921875 c 0
EndSplineSet
EndChar

StartChar: six
Encoding: 54 54 108
Width: 605
VWidth: 0
Flags: HW
LayerCount: 2
Fore
SplineSet
302.5 59.759765625 m 0
 193.3203125 59.759765625 104.5 148.58984375 104.5 257.759765625 c 0
 104.5 366.9296875 193.3203125 455.759765625 302.5 455.759765625 c 0
 411.6796875 455.759765625 500.5 366.940429688 500.5 257.759765625 c 0
 500.5 148.580078125 411.6796875 59.759765625 302.5 59.759765625 c 0
302.5 406.259765625 m 0
 220.620117188 406.259765625 154 339.650390625 154 257.759765625 c 0
 154 175.870117188 220.620117188 109.259765625 302.5 109.259765625 c 0
 384.379882812 109.259765625 451 175.879882812 451 257.759765625 c 0
 451 339.639648438 384.379882812 406.259765625 302.5 406.259765625 c 0
488.120117188 443.370117188 m 0
 530.557617188 400.930664062 565 317.776367188 565 257.758789062 c 0
 565 112.859375 447.400390625 -4.7412109375 302.5 -4.7412109375 c 0
 157.604492188 -4.7412109375 40.0048828125 112.854492188 40 257.75 c 0
 40 258.559570312 40 259.370117188 40 260.169921875 c 1
 40 260.169921875 l 1
 40 519.25 216.08984375 680.23046875 343.809570312 762.950195312 c 1
 365.610351562 729.830078125 l 1
 341.6796875 713.280273438 288.219726562 673.1796875 234.110351562 611.51953125 c 0
 192.190429688 563.75 158.790039062 512.98046875 134.790039062 460.639648438 c 0
 104.740234375 395.040039062 89.5 326.799804688 89.5 257.799804688 c 2
 89.5 250.299804688 l 1
 89.650390625 250.299804688 l 1
 93.6103515625 136.309570312 187.559570312 44.7998046875 302.5 44.7998046875 c 0
 419.950195312 44.7998046875 515.5 140.360351562 515.5 257.799804688 c 0
 515.5 375.240234375 419.950195312 470.799804688 302.5 470.799804688 c 0
 222.8203125 470.799804688 153.219726562 426.799804688 116.700195312 361.799804688 c 1
 140.8203125 464 196.5 545.790039062 245.08984375 601.25 c 0
 297.5 661 350.400390625 700.849609375 373.889648438 717.209960938 c 1
 401.799804688 674.780273438 l 1
 316.120117188 614.379882812 257.870117188 540.669921875 227.98046875 497.1796875 c 1
 267.799804688 516.889648438 313.740234375 526.879882812 364.120117188 513.01953125 c 0
 410.290039062 500.370117188 453.41015625 478.080078125 488.120117188 443.370117188 c 0
EndSplineSet
EndChar

StartChar: seven
Encoding: 55 55 109
Width: 604
VWidth: 0
Flags: HW
LayerCount: 2
Fore
SplineSet
226.209960938 0 m 1
 172.400390625 0 l 1
 192.450195312 385.559570312 424.3203125 632.900390625 424.3203125 632.900390625 c 1
 40 632.900390625 l 1
 40 682.400390625 l 1
 497.060546875 682.400390625 l 1
 497.060546875 651.700195312 l 1
 485.690429688 638.219726562 423.680664062 562.919921875 362.5 452.919921875 c 0
 322.930664062 381.740234375 291.390625 310.110351562 268.760742188 240 c 0
 242.120117188 157.4296875 227.830078125 76.7802734375 226.209960938 0 c 1
40 746.900390625 m 1
 564.830078125 746.900390625 l 1
 564.830078125 632.900390625 l 1
 564.830078125 632.900390625 317.48046875 362.610351562 294.709960938 0 c 1
 241.23046875 0 l 1
 245.020507812 174.75 315.80078125 337.950195312 375.440429688 445.309570312 c 0
 442.040039062 565.16015625 509.540039062 643.23046875 510.220703125 644 c 2
 512.060546875 646.099609375 l 1
 512.060546875 697.400390625 l 1
 40 697.400390625 l 1
 40 746.900390625 l 1
EndSplineSet
EndChar

StartChar: eight
Encoding: 56 56 110
Width: 590
VWidth: 0
Flags: HW
LayerCount: 2
Fore
SplineSet
414.219726562 578.549804688 m 0
 414.159179688 512.922851562 360.846679688 459.610351562 295.219726562 459.549804688 c 0
 229.53125 459.549804688 176.219726562 512.862304688 176.219726562 578.549804688 c 0
 176.219726562 644.23828125 229.53125 697.549804688 295.219726562 697.549804688 c 0
 360.908203125 697.549804688 414.219726562 644.23828125 414.219726562 578.549804688 c 0
225.759765625 578.549804688 m 1
 225.739257812 578.549804688 l 1
 225.778320312 540.235351562 256.905273438 509.104492188 295.219726562 509.059570312 c 0
 295.225585938 509.059570312 295.234375 509.059570312 295.239257812 509.059570312 c 0
 333.592773438 509.059570312 364.719726562 540.1875 364.719726562 578.540039062 c 0
 364.719726562 616.892578125 333.592773438 648.01953125 295.239257812 648.01953125 c 0
 256.892578125 648.01953125 225.765625 616.897460938 225.759765625 578.549804688 c 1
295.219726562 444.559570312 m 0
 400.399414062 444.559570312 485.959960938 358.990234375 485.959960938 253.8203125 c 0
 485.959960938 148.650390625 400.399414062 63.080078125 295.219726562 63.080078125 c 0
 190.040039062 63.080078125 104.479492188 148.639648438 104.479492188 253.8203125 c 0
 104.479492188 359 190.040039062 444.559570312 295.219726562 444.559570312 c 0
295.219726562 112.559570312 m 1
 295.219726562 112.580078125 l 1
 373.099609375 112.580078125 436.459960938 175.940429688 436.459960938 253.8203125 c 0
 436.459960938 331.700195312 373.099609375 395.059570312 295.219726562 395.059570312 c 0
 217.33984375 395.059570312 153.979492188 331.6796875 153.979492188 253.799804688 c 0
 153.979492188 175.919921875 217.33984375 112.559570312 295.219726562 112.559570312 c 1
475.700195312 434.309570312 m 1
 475.739257812 434.309570312 l 1
 516.99609375 393.044921875 550.479492188 312.197265625 550.479492188 253.845703125 c 0
 550.479492188 112.954101562 436.131835938 -1.3935546875 295.239257812 -1.3935546875 c 0
 154.34765625 -1.3935546875 40 112.954101562 40 253.845703125 c 0
 40 312.197265625 73.4833984375 393.044921875 114.739257812 434.309570312 c 0
 124.077148438 443.6484375 140.49609375 457.286132812 151.389648438 464.75 c 1
 129.502929688 492.291015625 111.739257812 543.1953125 111.739257812 578.374023438 c 0
 111.739257812 578.422851562 111.739257812 578.501953125 111.739257812 578.549804688 c 0
 111.739257812 679.719726562 194.049804688 762 295.219726562 762 c 0
 396.389648438 762 478.700195312 679.719726562 478.700195312 578.549804688 c 0
 478.700195312 578.501953125 478.700195312 578.422851562 478.700195312 578.374023438 c 0
 478.700195312 543.1953125 460.936523438 492.291015625 439.049804688 464.75 c 1
 449.943359375 457.286132812 466.362304688 443.6484375 475.700195312 434.309570312 c 1
295.219726562 48.080078125 m 0
 408.669921875 48.080078125 500.959960938 140.379882812 500.919921875 253.8203125 c 0
 500.919921875 350.5 433.919921875 431.799804688 343.919921875 453.73046875 c 1
 390.950195312 472.12890625 429.1640625 528.048828125 429.219726562 578.549804688 c 0
 429.219726562 652.450195312 369.120117188 712.549804688 295.219726562 712.549804688 c 0
 221.319335938 712.549804688 161.219726562 652.4296875 161.219726562 578.549804688 c 0
 161.26953125 528.059570312 199.465820312 472.140625 246.479492188 453.73046875 c 1
 156.479492188 431.8203125 89.4794921875 350.5 89.4794921875 253.8203125 c 0
 89.4794921875 140.379882812 181.76953125 48.080078125 295.219726562 48.080078125 c 0
EndSplineSet
EndChar

StartChar: nine
Encoding: 57 57 111
Width: 605
VWidth: 0
Flags: HW
LayerCount: 2
Fore
SplineSet
565 500.41015625 m 0
 565 499.599609375 564.990234375 498.790039062 565 498 c 1
 565 498 l 1
 565 238.91015625 388.91015625 77.9404296875 261.190429688 -4.740234375 c 1
 239.389648438 28.3798828125 l 1
 263.3203125 44.9296875 316.780273438 85 370.889648438 146.639648438 c 0
 412.809570312 194.419921875 446.209960938 245.1796875 470.209960938 297.530273438 c 0
 500.259765625 363.120117188 515.5 431.370117188 515.5 500.370117188 c 2
 515.5 507.870117188 l 1
 515.349609375 507.870117188 l 1
 511.389648438 621.860351562 417.440429688 713.370117188 302.5 713.370117188 c 0
 185.049804688 713.370117188 89.5 617.8203125 89.5 500.370117188 c 0
 89.5 382.919921875 185.049804688 287.370117188 302.5 287.370117188 c 0
 382.1796875 287.370117188 451.780273438 331.370117188 488.299804688 396.370117188 c 1
 464.1796875 294.16015625 408.5 212.379882812 359.919921875 156.950195312 c 0
 307.540039062 97.150390625 254.610351562 57.3095703125 231.120117188 40.9501953125 c 1
 203.200195312 83.3798828125 l 1
 288.879882812 143.780273438 347.129882812 217.5 377.01953125 260.98046875 c 1
 337.190429688 241.280273438 291.259765625 231.290039062 240.879882812 245.139648438 c 0
 194.709960938 257.799804688 151.58984375 280.08984375 116.879882812 314.799804688 c 0
 74.4423828125 357.240234375 40 440.393554688 40 500.411132812 c 0
 40 645.311523438 157.599609375 762.911132812 302.5 762.911132812 c 0
 447.400390625 762.911132812 565 645.311523438 565 500.411132812 c 0
 565 500.411132812 565 500.41015625 565 500.41015625 c 0
302.5 698.41015625 m 0
 411.6796875 698.41015625 500.5 609.58984375 500.5 500.41015625 c 0
 500.5 391.23046875 411.6796875 302.41015625 302.5 302.41015625 c 0
 193.3203125 302.41015625 104.5 391.23046875 104.5 500.41015625 c 0
 104.5 609.58984375 193.3203125 698.41015625 302.5 698.41015625 c 0
302.5 351.91015625 m 0
 384.379882812 351.91015625 451 418.530273438 451 500.41015625 c 0
 451 582.290039062 384.379882812 648.91015625 302.5 648.91015625 c 0
 220.620117188 648.91015625 154 582.290039062 154 500.41015625 c 0
 154 418.530273438 220.620117188 351.91015625 302.5 351.91015625 c 0
EndSplineSet
EndChar

StartChar: ampersand
Encoding: 38 38 112
Width: 720
VWidth: 0
Flags: HW
LayerCount: 2
Fore
SplineSet
680.584960938 0 m 1
 549.525390625 0 l 1
 470.525390625 122.23046875 l 1
 436.154296875 52.1455078125 344.908203125 -4.7333984375 266.849609375 -4.7333984375 c 0
 141.62890625 -4.7333984375 40 96.89453125 40 222.116210938 c 0
 40 343.229492188 138.239257812 444.801757812 259.28515625 448.83984375 c 1
 206.875 529.83984375 l 2
 191.34375 553.80859375 178.739257812 596.44140625 178.739257812 625.002929688 c 0
 178.739257812 677.498046875 214.487304688 743.28125 258.53515625 771.83984375 c 0
 339.46484375 824.330078125 448.03515625 801.129882812 500.53515625 720.209960938 c 0
 553.03515625 639.290039062 529.915039062 530.709960938 448.915039062 478.209960938 c 1
 389.065429688 570.509765625 l 1
 405.426757812 581.1171875 418.705078125 605.551757812 418.705078125 625.05078125 c 0
 418.705078125 660.930664062 389.584960938 690.05078125 353.705078125 690.05078125 c 0
 317.825195312 690.05078125 288.705078125 660.930664062 288.705078125 625.05078125 c 0
 288.705078125 614.4375 293.391601562 598.595703125 299.165039062 589.690429688 c 2
 680.584960938 0 l 1
266.514648438 105 m 2
 331.02734375 105.071289062 383.443359375 157.487304688 383.514648438 222 c 0
 383.514648438 286.583984375 331.098632812 339 266.514648438 339 c 0
 201.930664062 339 149.514648438 286.583984375 149.514648438 222 c 0
 149.514648438 157.416015625 201.930664062 105 266.514648438 105 c 0
 266.514648438 105 266.514648438 105 266.514648438 105 c 2
EndSplineSet
Validated: 37
EndChar

StartChar: asterisk
Encoding: 42 42 113
Width: 518
VWidth: 0
Flags: HW
LayerCount: 2
Fore
SplineSet
478.16015625 316.490234375 m 1
 331.889648438 268.969726562 l 1
 422.290039062 144.540039062 l 1
 349.48046875 91.6396484375 l 1
 259.080078125 216.0703125 l 1
 168.6796875 91.6396484375 l 1
 95.8701171875 144.540039062 l 1
 186.270507812 268.969726562 l 1
 40 316.490234375 l 1
 67.810546875 402.08984375 l 1
 214.080078125 354.559570312 l 1
 214.080078125 508.360351562 l 1
 304.080078125 508.360351562 l 1
 304.080078125 354.559570312 l 1
 450.349609375 402.08984375 l 1
 478.16015625 316.490234375 l 1
EndSplineSet
Validated: 1
EndChar

StartChar: plus
Encoding: 43 43 114
Width: 507
VWidth: 0
Flags: HW
LayerCount: 2
Fore
SplineSet
467.4609375 345 m 1
 467.4609375 255 l 1
 298.73046875 255 l 1
 298.73046875 86.26953125 l 1
 208.73046875 86.26953125 l 1
 208.73046875 255 l 1
 40 255 l 1
 40 345 l 1
 208.73046875 345 l 1
 208.73046875 513.73046875 l 1
 298.73046875 513.73046875 l 1
 298.73046875 345 l 1
 467.4609375 345 l 1
EndSplineSet
Validated: 1
EndChar

StartChar: quotedbl
Encoding: 34 34 115
Width: 326
VWidth: 0
Flags: HW
LayerCount: 2
Fore
SplineSet
40 526.9296875 m 1
 55.6396484375 570.889648438 66.9599609375 624 66.9599609375 738 c 1
 161.33984375 738 l 1
 161.33984375 548 111.280273438 494 111.280273438 494 c 1
 40 526.9296875 l 1
192.33984375 738 m 1
 286.6796875 738 l 1
 286.6796875 548 236.609375 494 236.609375 494 c 1
 165.33984375 526.9296875 l 1
 181.01953125 570.889648438 192.33984375 624 192.33984375 738 c 1
EndSplineSet
Validated: 1
EndChar

StartChar: colon
Encoding: 58 58 116
Width: 200
VWidth: 0
Flags: HW
LayerCount: 2
Fore
SplineSet
40 60 m 0
 40 93.13671875 66.86328125 120 100 120 c 0
 133.13671875 120 160 93.13671875 160 60 c 0
 160 26.86328125 133.13671875 0 100 0 c 0
 66.86328125 0 40 26.86328125 40 60 c 0
40 422.990234375 m 0
 40 456.126953125 66.86328125 482.990234375 100 482.990234375 c 0
 133.13671875 482.990234375 160 456.126953125 160 422.990234375 c 0
 160 389.852539062 133.13671875 362.990234375 100 362.990234375 c 0
 66.86328125 362.990234375 40 389.852539062 40 422.990234375 c 0
EndSplineSet
Validated: 1
EndChar

StartChar: less
Encoding: 60 60 117
Width: 467
VWidth: 0
Flags: HW
LayerCount: 2
Fore
SplineSet
346.9296875 -6.9296875 m 1
 40 300 l 1
 346.9296875 606.9296875 l 1
 427.5390625 526.3203125 l 1
 201.219726562 300 l 1
 427.5390625 73.6796875 l 1
 346.9296875 -6.9296875 l 1
EndSplineSet
Validated: 1
EndChar

StartChar: greater
Encoding: 62 62 118
Width: 467
VWidth: 0
Flags: HW
LayerCount: 2
Fore
SplineSet
120.609375 606.9296875 m 1
 427.5390625 300 l 1
 120.609375 -6.9296875 l 1
 40 73.6796875 l 1
 266.319335938 300 l 1
 40 526.3203125 l 1
 120.609375 606.9296875 l 1
EndSplineSet
Validated: 1
EndChar

StartChar: slash
Encoding: 47 47 119
Width: 501
VWidth: 0
Flags: HW
LayerCount: 2
Fore
SplineSet
340.209960938 850 m 1
 461.98046875 850 l 1
 161.770507812 -64.1103515625 l 1
 40 -64.1103515625 l 1
 340.209960938 850 l 1
EndSplineSet
Validated: 1
EndChar

StartChar: backslash
Encoding: 92 92 120
Width: 501
VWidth: 0
Flags: HW
LayerCount: 2
Fore
SplineSet
340.209960938 -64.1103515625 m 1
 40 850 l 1
 161.770507812 850 l 1
 461.98046875 -64.1103515625 l 1
 340.209960938 -64.1103515625 l 1
EndSplineSet
Validated: 1
EndChar

StartChar: S
Encoding: 83 83 121
Width: 783
VWidth: 0
Flags: W
HStem: -5 114<253.523 530.489> 685.29 114<254.89 529.79>
VStem: 59.5801 114<506.204 556.69>
LayerCount: 2
Fore
SplineSet
391.580078125 450.150390625 m 0
 555.400390625 427.280273438 743.580078125 407.209960938 743.580078125 237.599609375 c 1
 743.580078125 237.599609375 743.580078125 -5 391.580078125 -5 c 0
 77.240234375 -5 43.580078125 188.459960938 40 229.870117188 c 1
 153.580078125 246.809570312 l 1
 153.580078125 236.740234375 l 1
 153.580078125 236.740234375 153.48046875 109 391.580078125 109 c 0
 628.780273438 109 629.580078125 236.740234375 629.580078125 236.740234375 c 1
 629.580078125 315 517.8203125 323.870117188 391.580078125 344.139648438 c 0
 227.759765625 367 59.580078125 387.080078125 59.580078125 556.690429688 c 1
 59.580078125 556.690429688 39.580078125 799.290039062 391.580078125 799.290039062 c 0
 662.1796875 799.290039062 712.940429688 655.9296875 721.9296875 589.610351562 c 1
 609.580078125 572.849609375 l 1
 606.23046875 606.76953125 578.270507812 685.290039062 391.580078125 685.290039062 c 0
 154.379882812 685.290039062 173.580078125 557.549804688 173.580078125 557.549804688 c 1
 173.580078125 479.3203125 265.33984375 470.419921875 391.580078125 450.150390625 c 0
EndSplineSet
Validated: 33
EndChar

StartChar: hyphen
Encoding: 45 45 122
Width: 389
VWidth: 0
Flags: HW
LayerCount: 2
Fore
SplineSet
40 243 m 1
 40 357 l 1
 349 357 l 1
 349 243 l 1
 40 243 l 1
EndSplineSet
Validated: 1
EndChar

StartChar: question
Encoding: 63 63 123
Width: 618
VWidth: 0
Flags: HW
LayerCount: 2
Fore
SplineSet
249.463867188 60 m 0
 249.463867188 93.13671875 276.327148438 120 309.463867188 120 c 0
 342.600585938 120 369.463867188 93.13671875 369.463867188 60 c 0
 369.463867188 26.86328125 342.600585938 0 309.463867188 0 c 0
 276.327148438 0 249.463867188 26.86328125 249.463867188 60 c 0
499.994140625 721.080078125 m 1
 605.213867188 615.849609375 605.213867188 445.25 499.994140625 340 c 2
 318.213867188 158.25 l 1
 237.603515625 238.860351562 l 1
 419.383789062 420.639648438 l 2
 444.513671875 445.772460938 464.909179688 495.014648438 464.909179688 530.5546875 c 0
 464.909179688 566.095703125 444.513671875 615.337890625 419.383789062 640.469726562 c 1
 419.383789062 640.469726562 l 1
 394.250976562 665.602539062 345.006835938 686.000976562 309.463867188 686.000976562 c 0
 273.920898438 686.000976562 224.676757812 665.602539062 199.543945312 640.469726562 c 1
 199.543945312 640.469726562 l 1
 174.404296875 615.368164062 154.000976562 566.163085938 154.000976562 530.63671875 c 0
 154.000976562 525.29296875 154.540039062 516.65234375 155.204101562 511.349609375 c 1
 40.7041015625 511.349609375 l 1
 40.3154296875 516.709960938 40 525.422851562 40 530.796875 c 0
 40 592.352539062 75.3623046875 677.599609375 118.93359375 721.080078125 c 1
 118.93359375 721.080078125 l 1
 224.1640625 826.309570312 394.763671875 826.309570312 499.994140625 721.080078125 c 1
 499.994140625 721.080078125 l 1
EndSplineSet
EndChar

StartChar: quotesingle
Encoding: 39 39 124
Width: 201
VWidth: 0
Flags: HW
LayerCount: 2
Fore
SplineSet
134.379882812 738 m 1
 134.379882812 624 145.700195312 570.889648438 161.379882812 526.9296875 c 1
 90.0595703125 494 l 1
 90.0595703125 494 40 548 40 738 c 1
 134.379882812 738 l 1
EndSplineSet
Validated: 1
EndChar

StartChar: grave
Encoding: 96 96 125
Width: 201
VWidth: 0
Flags: HW
LayerCount: 2
Fore
SplineSet
67 738 m 1
 161.379882812 738 l 1
 161.379882812 548 111.3203125 494 111.3203125 494 c 1
 40 526.9296875 l 1
 55.6796875 570.889648438 67 624 67 738 c 1
EndSplineSet
Validated: 1
EndChar

StartChar: bar
Encoding: 124 124 126
Width: 194
VWidth: 0
Flags: HW
LayerCount: 2
Fore
SplineSet
40 -152.700195312 m 1
 40 746.900390625 l 1
 154 746.900390625 l 1
 154 -152.700195312 l 1
 40 -152.700195312 l 1
EndSplineSet
Validated: 1
EndChar

StartChar: asciicircum
Encoding: 94 94 127
Width: 544
VWidth: 0
Flags: HW
LayerCount: 2
Fore
SplineSet
272.150390625 800 m 1
 504.30078125 567.849609375 l 1
 423.690429688 487.240234375 l 1
 272.150390625 638.780273438 l 1
 120.610351562 487.240234375 l 1
 40 567.849609375 l 1
 272.150390625 800 l 1
EndSplineSet
Validated: 1
EndChar

StartChar: underscore
Encoding: 95 95 128
Width: 587
VWidth: 0
Flags: HW
LayerCount: 2
Fore
SplineSet
40 0 m 1
 40 90 l 1
 547.470703125 90 l 1
 547.470703125 0 l 1
 40 0 l 1
EndSplineSet
Validated: 1
EndChar

StartChar: asciitilde
Encoding: 126 126 129
Width: 544
VWidth: 0
Flags: HW
LayerCount: 2
Fore
SplineSet
134.240234375 427.950195312 m 1
 40 422.059570312 l 1
 49.23046875 596.9296875 247 632.870117188 316.5703125 519.620117188 c 0
 331.459960938 495.400390625 365.379882812 491.080078125 388.629882812 507.620117188 c 0
 400.172851562 515.838867188 409.854492188 534.004882812 410.240234375 548.169921875 c 1
 504.48046875 554.059570312 l 1
 505.080078125 393.129882812 316.100585938 349.139648438 227.91015625 456.5 c 0
 209.860351562 478.5 179.100585938 485.040039062 155.850585938 468.5 c 0
 144.30859375 460.280273438 134.626953125 442.114257812 134.240234375 427.950195312 c 1
EndSplineSet
Validated: 33
EndChar

